<?xml version="1.0" encoding="UTF-8" standalone="no"?>
<!-- Generator: Adobe Illustrator 25.1.0, SVG Export Plug-In . SVG Version: 6.00 Build 0)  -->

<svg
   version="1.1"
   x="0px"
   y="0px"
   viewBox="0 0 100 50"
   xml:space="preserve"
   id="svg101"
   sodipodi:docname="aip_logo.svg"
   inkscape:version="1.1 (c68e22c387, 2021-05-23)"
   width="100"
   height="50"
   xmlns:inkscape="http://www.inkscape.org/namespaces/inkscape"
   xmlns:sodipodi="http://sodipodi.sourceforge.net/DTD/sodipodi-0.dtd"
   xmlns:xlink="http://www.w3.org/1999/xlink"
   xmlns="http://www.w3.org/2000/svg"
   xmlns:svg="http://www.w3.org/2000/svg"><defs
   id="defs105">
	
	

		
		
		
		
	
			
				
			
		
		
		
	
			
				
			
		
			
			
		
			
				
			
		
			
				
			
		
			
				
			
		
				
					
				
			
				
					
				
			<linearGradient
   inkscape:collect="always"
   xlink:href="#SVGID_5_"
   id="linearGradient51703"
   gradientUnits="userSpaceOnUse"
   x1="375.4671"
   y1="132.4735"
   x2="214.767"
   y2="150.3291" /></defs><sodipodi:namedview
   id="namedview103"
   pagecolor="#505050"
   bordercolor="#eeeeee"
   borderopacity="1"
   inkscape:pageshadow="0"
   inkscape:pageopacity="0"
   inkscape:pagecheckerboard="0"
   showgrid="false"
   inkscape:zoom="5.824"
   inkscape:cx="45.84478"
   inkscape:cy="6.7822802"
   inkscape:window-width="1920"
   inkscape:window-height="1001"
   inkscape:window-x="-9"
   inkscape:window-y="-9"
   inkscape:window-maximized="1"
   inkscape:current-layer="svg101"
   width="800px" />
<style
   type="text/css"
   id="style2">
	.st0{fill:#ECECEC;}
	.st1{fill:url(#SVGID_1_);}
	.st2{fill:url(#SVGID_2_);}
	.st3{fill:url(#SVGID_3_);}
	.st4{fill:url(#SVGID_4_);}
	.st5{fill:url(#SVGID_5_);}
	.st6{fill:#3F3E3E;}
	.st7{font-family:'Bebas-Regular';}
	.st8{font-size:93.2709px;}
	.st9{fill:#AD0029;}
	.st10{font-size:17.7659px;}
	.st11{letter-spacing:7;}
</style>

<g
   id="g25"
   transform="matrix(1.0053523,0,0,1,29.228335,-0.15755496)">
				<g
   id="g23">
					<linearGradient
   id="SVGID_1_"
   gradientUnits="userSpaceOnUse"
   x1="301.12329"
   y1="307.20239"
   x2="371.84909"
   y2="294.59781"
   xlink:href="#SVGID_5_"
   gradientTransform="matrix(0.16641265,0,0,0.16609933,-5.5528596,-14.826921)">
						<stop
   offset="0"
   style="stop-color:#3F3E3E"
   id="stop9" />
						<stop
   offset="1"
   style="stop-color:#222221"
   id="stop11" />
					</linearGradient>
					<path
   class="st1"
   d="m 60.795866,33.507984 c -0.03328,-0.232542 -0.0832,-0.465075 -0.133127,-0.69762 0,0 0,0 0,0 -0.133129,-0.63118 -0.299537,-1.245744 -0.31618,-1.893534 0,-0.199317 0,-0.382026 -0.06655,-0.564732 -0.03328,-0.11627 -0.116505,-0.232543 -0.166413,-0.348816 -0.06655,-0.166093 -0.0832,-0.332197 -0.0832,-0.498291 0.01661,-0.431859 0.24962,-0.863719 0.465956,-1.24575 0.21634,-0.382025 0.432672,-0.764053 0.66565,-1.129473 0.06655,-0.116271 0.23298,-0.116271 0.31618,-0.01662 0.08322,0.09966 0.16642,0.199322 0.24962,0.282371 0.0832,0.08305 0.216345,0.03318 0.23298,-0.08304 l 0.149772,-0.913546 c 0.01661,-0.06645 0.09986,-0.08305 0.133128,-0.01661 l 0.266262,0.564736 c 0.04988,0.132878 0.232973,0.149491 0.316185,0.04983 0.332822,-0.365422 0.998476,-1.21253 1.214808,-2.458277 0.03328,-0.232535 0.04988,-0.431857 0.03328,-0.597953 -0.133129,-1.096255 -1.464434,-1.013209 -2.729165,-0.465081 -1.464434,0.631177 -2.329778,-0.780666 -2.512828,-0.880322 -0.09986,-0.04983 -0.282903,0.01661 -0.432681,0.09965 -0.09985,0.04983 -0.199691,-0.04983 -0.149767,-0.149491 0.116482,-0.265759 0.399387,-0.631178 0.998475,-0.863715 0.981835,-0.382028 2.812372,1.594552 4.526422,0.913547 0.61573,-0.249152 1.098329,-0.730837 1.497715,-1.262356 0.23298,-0.332201 0.266262,-0.764058 0.08321,-1.112864 -0.04988,-0.08306 -0.08321,-0.149491 -0.133141,-0.232542 -8.05437,1.129477 -15.459734,4.517903 -21.500512,9.517494 0.183048,0.332198 0.465953,0.631173 0.549164,0.996594 0,0.03323 0.01661,0.06645 0.01661,0.09966 0.03328,0.3322 -0.133128,0.6644 -0.04988,0.979985 0.06655,0.24915 0.282899,0.415251 0.432669,0.631181 0.116494,0.1661 0.199697,0.382027 0.216337,0.581348 0.04988,0.365414 -0.04988,0.747446 -0.282902,1.029817 -0.166413,0.199317 -0.382752,0.34881 -0.5658,0.548126 -0.133142,0.1661 -0.24962,0.348809 -0.316186,0.564741 -0.166412,0.481683 -0.183055,1.063028 -0.199697,1.561331 -0.01661,0.415245 0.116505,0.863713 0.449317,1.079645 0.199698,0.132878 0.432671,0.166101 0.615725,0.298979 0.382746,0.282371 0.332826,0.581345 0.332826,1.063039 0,0.09965 0.03328,0.166093 0.03328,0.265756 0.499235,0.764056 0.266254,1.777264 0.465953,2.657587 0.149771,0.71423 0.599087,1.328795 0.998474,1.943364 0.465959,0.697619 0.915269,1.47828 0.948551,2.325387 0.01661,0.51491 -0.09986,1.029821 0.116506,1.528118 0.09986,0.215926 0.282901,0.398635 0.51588,0.465076 0.449318,0.11627 0.748857,-0.24915 1.131607,-0.415249 0.44931,-0.199322 0.981835,-0.09965 1.48107,-0.1661 0.798786,-0.09965 1.481076,-0.597954 2.113441,-1.096248 0.282903,-0.215933 0.549159,-0.431868 0.765497,-0.714232 0.282901,-0.382026 0.416033,-0.896937 0.798785,-1.162696 0.166413,-0.116271 0.366105,-0.182709 0.549165,-0.265761 0.44931,-0.249147 0.931904,-0.730836 0.815421,-1.229132 -0.03328,-0.166101 -0.04988,-0.332198 0.01661,-0.498297 0.249619,-0.597958 0.848703,-0.830497 1.264738,-1.262357 0.266261,-0.28237 0.316185,-0.780667 0.332826,-1.162693 0,-0.166101 -0.01661,-0.332199 -0.08321,-0.481688 0,-0.01662 -0.01661,-0.03319 -0.01661,-0.04981 -0.116482,-0.265759 -0.249614,-0.681004 -0.03328,-0.930153 0.149773,-0.166102 0.399393,-0.215931 0.582442,-0.332199 0.416034,-0.282375 0.449317,-0.93016 0.848709,-1.212526 0.149767,-0.116271 0.349464,-0.166098 0.515883,-0.232543 0,0 0.01661,0 0.01661,0 0.299545,-0.132893 0.532518,-0.365416 0.748855,-0.597954 0.649013,-0.664396 1.065042,-1.910141 0.948553,-2.807076 z"
   id="path14"
   style="fill:url(#SVGID_1_);fill-opacity:1;stroke-width:0.166255" />
					<linearGradient
   id="SVGID_2_"
   gradientUnits="userSpaceOnUse"
   x1="306.94901"
   y1="339.94119"
   x2="377.67551"
   y2="327.33649"
   gradientTransform="matrix(0.16641265,0,0,0.16609933,-5.5528596,-14.826921)">
						<stop
   offset="0"
   style="stop-color:#3F3E3E"
   id="stop16" />
						<stop
   offset="1"
   style="stop-color:#222221"
   id="stop18" />
					</linearGradient>
					<path
   class="st2"
   d="m 67.618787,34.953046 c -0.01661,-0.116271 -0.09986,-0.199317 -0.216339,-0.215929 -0.332819,-0.03323 -0.249619,0.664397 -0.5658,0.69762 -0.09986,0.01662 -0.216337,-0.06645 -0.316185,-0.04981 -0.249621,0.01662 -0.332823,0.481687 -0.582442,0.415248 -0.06655,-0.01662 -0.116494,-0.06645 -0.183061,-0.08305 -0.149767,-0.04981 -0.282898,0.08305 -0.382745,0.199322 -0.08321,0.132878 -0.183055,0.298982 -0.332826,0.282367 -0.416034,-0.01662 -0.732215,-0.431853 -1.148243,-0.282367 -0.266262,0.09966 -0.599088,0.36542 -0.698937,0.631175 -0.149766,0.465081 -0.299545,0.930157 -0.549164,1.345406 -0.166408,0.26576 -0.366105,0.514909 -0.615725,0.681007 -0.199695,0.132893 -0.582447,0.182711 -0.715572,0.382028 -0.199696,0.282371 -0.299545,0.714228 -0.432676,1.046428 -0.09985,0.232539 -0.232973,0.681008 -0.216338,1.046423 0.01667,0.265761 0.09986,0.481692 0.349469,0.581347 0.199697,0.06645 0.416035,0.04981 0.61573,0.08305 0.399387,0.08304 0.615725,0 0.931911,-0.249154 0.266262,-0.215927 0.482599,-0.498298 0.732214,-0.747446 0.282903,-0.298976 0.582441,-0.581348 0.865344,-0.880323 0.599091,-0.597958 1.181531,-1.195918 1.780619,-1.793875 0.149773,-0.14949 0.299538,-0.31559 0.416029,-0.481687 0.149772,-0.215926 0.399392,-0.315589 0.649013,-0.249149 0.0832,0.03323 0.166407,0.03323 0.249613,-0.03323 0.06655,-0.0498 0.09986,-0.116271 0.133142,-0.199317 0.266256,-0.681002 0.349457,-1.428454 0.232973,-2.126072 z"
   id="path21"
   style="fill:url(#SVGID_2_);stroke-width:0.166255" />
				</g>
			</g><g
   id="g38"
   transform="matrix(0.16730334,0,0,0.16609932,23.645756,-14.967864)">
				<linearGradient
   id="SVGID_3_"
   gradientUnits="userSpaceOnUse"
   x1="439.164"
   y1="197.2643"
   x2="313.04175"
   y2="234.71368">
					<stop
   offset="0"
   style="stop-color:#AD0029"
   id="stop31" />
					<stop
   offset="1"
   style="stop-color:#842d2a;stop-opacity:1"
   id="stop33" />
				</linearGradient>
				<path
   class="st3"
   d="m 433.2,202.7 c 0,0 0,0 0,0 -0.2,0.4 -0.8,0.5 -1.1,0.2 -0.7,-0.5 -2.2,-1.6 -3.9,-2.3 -2.1,-0.9 -4.7,-1.5 -6.8,-0.2 -0.1,0 -0.1,0.1 -0.2,0.1 -4.5,3.1 1.1,4.9 3.1,7.6 0.3,0.4 0.6,0.9 1,1.4 -48.4,6.8 -92.9,27.2 -129.2,57.3 -0.3,-0.6 -0.6,-1.2 -0.7,-1.9 -0.5,-2 0,-4.1 -0.6,-6 -1.1,-3.2 -4.8,-4.4 -7.1,-6.8 -0.1,-0.2 -0.3,-0.3 -0.4,-0.5 0,0 0,0 0,0 -1.4,-1.6 -2.2,-3.7 -2.2,-5.8 -0.1,-3.5 1.8,-6.8 2.8,-10.2 0.9,-3.4 0.5,-7.9 -2.7,-9.4 -1.9,-0.9 -4,-0.4 -6.2,0.1 -2.9,0.7 -6,-0.3 -7.7,-2.8 -0.9,-1.3 -2.3,-2.4 -3.8,-3.2 -1.1,-0.5 -2.3,-0.8 -3.5,-1 -1,-0.1 -2.1,-0.1 -3.1,0 43.8,-26.6 96,-40.6 151,-37 2.4,0.2 4.8,0.3 7.2,0.6 5.5,5.8 11.3,12.3 13.5,16.3 0.6,1.7 0.9,2.9 0.6,3.5 z"
   id="path36"
   style="fill:url(#SVGID_3_)" />
			</g><g
   id="g51"
   transform="matrix(0.16730334,0,0,0.16609932,23.679217,-15.001084)">
				<linearGradient
   id="SVGID_4_"
   gradientUnits="userSpaceOnUse"
   x1="210.71021"
   y1="210.7242"
   x2="294.57111"
   y2="181.35583">
					<stop
   offset="0"
   style="stop-color:#F2CE30"
   id="stop44" />
					<stop
   offset="1"
   style="stop-color:#dc861b;stop-opacity:1"
   id="stop46" />
				</linearGradient>
				<path
   class="st4"
   d="m 409.8,173.9 c -2.1,-2 -3.4,-3.7 -4.4,-5.4 -19.2,-5.9 -39.3,-9.7 -60.2,-11 -54.6,-3.5 -106.4,10.2 -150,36.4 0.5,0.9 1.2,1.8 1.9,2.6 3.2,3 5.5,6.6 8.3,10.4 1.3,1.8 2.7,3.7 3.6,5.7 0.7,1.5 1.2,3.1 2.2,4.5 0.9,1.3 2.3,2.2 3.5,3.2 1.3,1 2.6,2.1 3.8,3.2 1.5,1.2 3.2,2.9 5.3,2.9 2.5,0.1 4.4,-2.1 6.8,-2.8 3.1,-1 6.4,0.6 9.6,0.9 4,0.4 8,-1 11.8,-2.5 0.1,0 0.2,-0.1 0.3,-0.1 2.7,-1 5.6,-2.1 8.4,-2.4 43.8,-26.6 96,-40.6 151,-37 2.4,0.2 4.8,0.3 7.2,0.6 -3.4,-3.6 -6.8,-6.9 -9.1,-9.2 z m -9.6,6.6 c -2,-1 -4.3,-1.8 -6.5,-0.9 -3.6,1.4 -7,-2.3 -8.6,-2.9 -0.8,-0.3 -2,-0.6 -3.2,-0.9 -1,-0.2 -1.1,-1.6 -0.2,-2 1.6,-0.8 3.9,-1.8 7,-2.4 6.1,-1.3 8.8,0.2 9.5,2.7 0.4,1.3 1.8,3.5 3,5.4 0.4,0.6 -0.3,1.4 -1,1 z"
   id="path49"
   style="fill:url(#SVGID_4_)" />
			</g><g
   id="g66"
   transform="matrix(0.16730334,0,0,0.16609932,23.69595,-15.017695)">
				<g
   id="g64">
					<linearGradient
   id="SVGID_5_"
   gradientUnits="userSpaceOnUse"
   x1="375.4671"
   y1="132.4735"
   x2="214.767"
   y2="150.3291">
						<stop
   offset="0"
   style="stop-color:#67B752"
   id="stop57" />
						<stop
   offset="1"
   style="stop-color:#386539"
   id="stop59" />
					</linearGradient>
					<path
   class="st5"
   d="m 400.5,157.9 c -3.1,-3.9 -9,-6.3 -13.5,-8.2 -1.1,-0.5 -2.3,-0.9 -3.4,-1.3 -0.7,-0.2 -1.6,-0.3 -2.6,-0.4 -3.5,-0.2 -6.7,-2 -8.5,-5 0,0 0,-0.1 0,-0.1 0,0 0,0 0,0 -0.4,-0.7 -0.9,-1.4 -1.3,-2 -1.7,-2.4 -3.3,-4.9 -5,-7.3 v 0 c -1.1,-1.6 1.1,-3.4 2.4,-2 0.2,0.2 0.5,0.5 0.6,0.8 0.5,0.7 1.1,2.1 1.9,3 v 0 c 0.7,0.7 1.5,1.1 2.4,0.5 2,-1.2 -0.3,-7 -0.7,-8.8 0,-0.2 -0.1,-0.6 -0.1,-1 -0.2,-1.5 -0.4,-3.7 -1.2,-4.3 -0.8,-0.6 -2,0.3 -2.8,0.7 -1.4,0.8 -3.1,0.8 -4.6,0.3 -1.3,-0.5 -2.5,-0.8 -3.9,-0.6 -1,0.1 -2,0.5 -3,0.8 -3.3,1 -6.9,1.2 -10.3,0.5 -1.4,-0.3 -2.8,-0.7 -4.3,-1.1 -1.3,-0.4 -2.6,-0.7 -3.9,-1 -2.6,-0.6 -5.3,-1.2 -7.9,-1.6 -2.9,-0.5 -6.6,-2.7 -7.6,1.2 -0.3,1 -0.1,2.5 -0.2,3.8 0,1.3 -0.3,2.5 -1.1,3.2 -0.7,0.6 -1.7,0.8 -2.6,0.7 -1.3,-0.2 -2.4,-0.9 -3.4,-1.7 -0.4,-0.4 -0.9,-0.7 -1.3,-1.1 -5.2,-4.5 -11.5,-7.7 -18.2,-9.2 -2.2,-0.5 -3.3,-2.9 -2.4,-4.9 0.8,-1.8 1.5,-3.6 1.5,-5.6 0,-1.7 -0.8,-3.3 -2.2,-4.3 -2,-1.4 -3.6,-0.4 -5.2,0.2 -3.6,1.3 -7.5,0.6 -11.3,0.5 -9.6,-0.2 -18.9,3.3 -28.4,3.3 -1.9,0 -3.8,-0.1 -5.6,0.5 -4.8,1.7 -6.5,8 -11.1,10.1 -1.4,0.6 -2.9,0.9 -4.1,1.9 -2,1.7 -1.8,4.9 -2.8,7.4 -2.4,6.2 -11.2,6.8 -15.6,11.9 -1.8,2.1 -2.7,4.8 -4.8,6.6 -0.9,0.7 -1.9,1.3 -2.6,2.2 -1.2,1.4 -1.4,3.4 -2,5.1 -0.3,0.8 -0.8,1.7 -1.4,2.3 -2,2 -2.8,4.9 -1.9,7.6 l 0.1,0.4 c 2.3,6.6 1.2,14.3 -2.7,20.2 -0.4,0.6 -0.9,1.3 -1.1,2.1 -0.3,1.2 0.4,2.4 0.8,3.6 0.2,0.8 0.4,1.5 0.4,2.3 0.1,1.4 0.5,2.7 1.1,3.9 43.6,-26.2 95.4,-39.9 150,-36.4 20.9,1.3 41.1,5.1 60.2,11 -2.6,-4.4 -2.4,-7.6 -4.8,-10.7 z"
   id="path62"
   style="fill:url(#linearGradient51703)" />
				</g>
			</g><g
   id="g76"
   transform="matrix(0.31728023,0,0,0.26115455,-0.22469969,-43.508082)">
				<text
   transform="scale(1.0060445,0.99399182)"
   class="st6 st7 st8"
   id="text74"
   style="font-style:normal;font-variant:normal;font-weight:normal;font-stretch:normal;font-family:Algerian;-inkscape-font-specification:Algerian;fill:#447a40;fill-opacity:1;stroke-width:1.03335"
   x="18.491747"
   y="320.36624"><tspan
     style="fill:#447a40;fill-opacity:1;stroke-width:1.03335"
     id="tspan20559">A I P</tspan></text>
			</g><g
   id="g84"
   transform="matrix(0.30751437,0,0,0.36096647,-13.969842,-77.990076)">
					<path
   class="st9"
   d="M 271.2,353.2 H 63.1 c -0.9,0 -1.6,-0.7 -1.6,-1.6 v -17.9 c 0,-0.9 0.7,-1.6 1.6,-1.6 h 208.2 c 0.9,0 1.6,0.7 1.6,1.6 v 17.9 c -0.1,0.9 -0.8,1.6 -1.7,1.6 z"
   id="path82"
   style="fill:#df9a1e;fill-opacity:1" />
				</g><g
   id="g92"
   transform="matrix(0.26485457,0,0,0.36096647,-9.7956839,-80.106098)"
   style="fill:#f9f9f9">
					<text
   transform="scale(0.99974997,1.0002501)"
   class="st0 st7 st10 st11"
   id="text90"
   style="font-style:normal;font-variant:normal;font-weight:bold;font-stretch:normal;font-size:14px;font-family:'Comic Sans MS';-inkscape-font-specification:'Comic Sans MS Bold';letter-spacing:1.7747px;fill:#f9f9f9;stroke-width:0.99975"
   x="60.147644"
   y="351.92133"><tspan
     style="font-style:normal;font-variant:normal;font-weight:bold;font-stretch:normal;font-size:14px;font-family:'Comic Sans MS';-inkscape-font-specification:'Comic Sans MS Bold';fill:#f9f9f9;stroke-width:0.99975"
     id="tspan10989">Africa Integration Partners</tspan></text>
				</g>
</svg>
