<?xml version="1.0" encoding="UTF-8" standalone="no"?>
<!-- Generator: Adobe Illustrator 25.1.0, SVG Export Plug-In . SVG Version: 6.00 Build 0)  -->

<svg
   version="1.1"
   x="0px"
   y="0px"
   viewBox="0 0 500 500"
   style="enable-background:new 0 0 500 500;"
   xml:space="preserve"
   id="svg101"
   sodipodi:docname="aip_logo_relaod.svg"
   inkscape:version="1.1 (c68e22c387, 2021-05-23)"
   xmlns:inkscape="http://www.inkscape.org/namespaces/inkscape"
   xmlns:sodipodi="http://sodipodi.sourceforge.net/DTD/sodipodi-0.dtd"
   xmlns:xlink="http://www.w3.org/1999/xlink"
   xmlns="http://www.w3.org/2000/svg"
   xmlns:svg="http://www.w3.org/2000/svg"><defs
   id="defs105">
	
	

		
		
		
		
	
			
				
			
		
		
		
	
			
				
			
		
			
			
		
			
				
			
		
			
				
			
		
			
				
			
		
				
					
				
			
				
					
				
			</defs><sodipodi:namedview
   id="namedview103"
   pagecolor="#505050"
   bordercolor="#eeeeee"
   borderopacity="1"
   inkscape:pageshadow="0"
   inkscape:pageopacity="0"
   inkscape:pagecheckerboard="0"
   showgrid="false"
   inkscape:zoom="0.728"
   inkscape:cx="182.69231"
   inkscape:cy="217.71978"
   inkscape:window-width="1920"
   inkscape:window-height="1001"
   inkscape:window-x="-9"
   inkscape:window-y="-9"
   inkscape:window-maximized="1"
   inkscape:current-layer="g23" />
<style
   type="text/css"
   id="style2">
	.st0{fill:#ECECEC;}
	.st1{fill:url(#SVGID_1_);}
	.st2{fill:url(#SVGID_2_);}
	.st3{fill:url(#SVGID_3_);}
	.st4{fill:url(#SVGID_4_);}
	.st5{fill:url(#SVGID_5_);}
	.st6{fill:#3F3E3E;}
	.st7{font-family:'Bebas-Regular';}
	.st8{font-size:93.2709px;}
	.st9{fill:#AD0029;}
	.st10{font-size:17.7659px;}
	.st11{letter-spacing:7;}
</style>

<g
   id="g25"
   transform="translate(-0.2,0.1)">
				<g
   id="g23">
					<linearGradient
   id="SVGID_1_"
   gradientUnits="userSpaceOnUse"
   x1="301.12329"
   y1="307.20239"
   x2="371.84909"
   y2="294.59781"
   xlink:href="#SVGID_5_">
						<stop
   offset="0"
   style="stop-color:#3F3E3E"
   id="stop9" />
						<stop
   offset="1"
   style="stop-color:#222221"
   id="stop11" />
					</linearGradient>
					<path
   class="st1"
   d="m 398.7,291 c -0.2,-1.4 -0.5,-2.8 -0.8,-4.2 0,0 0,0 0,0 -0.8,-3.8 -1.8,-7.5 -1.9,-11.4 0,-1.2 0,-2.3 -0.4,-3.4 -0.2,-0.7 -0.7,-1.4 -1,-2.1 -0.4,-1 -0.5,-2 -0.5,-3 0.1,-2.6 1.5,-5.2 2.8,-7.5 1.3,-2.3 2.6,-4.6 4,-6.8 0.4,-0.7 1.4,-0.7 1.9,-0.1 0.5,0.6 1,1.2 1.5,1.7 0.5,0.5 1.3,0.2 1.4,-0.5 l 0.9,-5.5 c 0.1,-0.4 0.6,-0.5 0.8,-0.1 l 1.6,3.4 c 0.3,0.8 1.4,0.9 1.9,0.3 2,-2.2 6,-7.3 7.3,-14.8 0.2,-1.4 0.3,-2.6 0.2,-3.6 -0.8,-6.6 -8.8,-6.1 -16.4,-2.8 -8.8,3.8 -14,-4.7 -15.1,-5.3 -0.6,-0.3 -1.7,0.1 -2.6,0.6 -0.6,0.3 -1.2,-0.3 -0.9,-0.9 0.7,-1.6 2.4,-3.8 6,-5.2 5.9,-2.3 16.9,9.6 27.2,5.5 3.7,-1.5 6.6,-4.4 9,-7.6 1.4,-2 1.6,-4.6 0.5,-6.7 -0.3,-0.5 -0.5,-0.9 -0.8,-1.4 -48.4,6.8 -92.9,27.2 -129.2,57.3 1.1,2 2.8,3.8 3.3,6 0,0.2 0.1,0.4 0.1,0.6 0.2,2 -0.8,4 -0.3,5.9 0.4,1.5 1.7,2.5 2.6,3.8 0.7,1 1.2,2.3 1.3,3.5 0.3,2.2 -0.3,4.5 -1.7,6.2 -1,1.2 -2.3,2.1 -3.4,3.3 -0.8,1 -1.5,2.1 -1.9,3.4 -1,2.9 -1.1,6.4 -1.2,9.4 -0.1,2.5 0.7,5.2 2.7,6.5 1.2,0.8 2.6,1 3.7,1.8 2.3,1.7 2,3.5 2,6.4 0,0.6 0.2,1 0.2,1.6 3,4.6 1.6,10.7 2.8,16 0.9,4.3 3.6,8 6,11.7 2.8,4.2 5.5,8.9 5.7,14 0.1,3.1 -0.6,6.2 0.7,9.2 0.6,1.3 1.7,2.4 3.1,2.8 2.7,0.7 4.5,-1.5 6.8,-2.5 2.7,-1.2 5.9,-0.6 8.9,-1 4.8,-0.6 8.9,-3.6 12.7,-6.6 1.7,-1.3 3.3,-2.6 4.6,-4.3 1.7,-2.3 2.5,-5.4 4.8,-7 1,-0.7 2.2,-1.1 3.3,-1.6 2.7,-1.5 5.6,-4.4 4.9,-7.4 -0.2,-1 -0.3,-2 0.1,-3 1.5,-3.6 5.1,-5 7.6,-7.6 1.6,-1.7 1.9,-4.7 2,-7 0,-1 -0.1,-2 -0.5,-2.9 0,-0.1 -0.1,-0.2 -0.1,-0.3 -0.7,-1.6 -1.5,-4.1 -0.2,-5.6 0.9,-1 2.4,-1.3 3.5,-2 2.5,-1.7 2.7,-5.6 5.1,-7.3 0.9,-0.7 2.1,-1 3.1,-1.4 0,0 0.1,0 0.1,0 1.8,-0.8 3.2,-2.2 4.5,-3.6 3.9,-4 6.4,-11.5 5.7,-16.9 z"
   id="path14"
   style="fill:url(#SVGID_1_);fill-opacity:1.0" />
					<linearGradient
   id="SVGID_2_"
   gradientUnits="userSpaceOnUse"
   x1="306.94901"
   y1="339.94119"
   x2="377.67551"
   y2="327.33649">
						<stop
   offset="0"
   style="stop-color:#3F3E3E"
   id="stop16" />
						<stop
   offset="1"
   style="stop-color:#222221"
   id="stop18" />
					</linearGradient>
					<path
   class="st2"
   d="m 439.7,299.7 c -0.1,-0.7 -0.6,-1.2 -1.3,-1.3 -2,-0.2 -1.5,4 -3.4,4.2 -0.6,0.1 -1.3,-0.4 -1.9,-0.3 -1.5,0.1 -2,2.9 -3.5,2.5 -0.4,-0.1 -0.7,-0.4 -1.1,-0.5 -0.9,-0.3 -1.7,0.5 -2.3,1.2 -0.5,0.8 -1.1,1.8 -2,1.7 -2.5,-0.1 -4.4,-2.6 -6.9,-1.7 -1.6,0.6 -3.6,2.2 -4.2,3.8 -0.9,2.8 -1.8,5.6 -3.3,8.1 -1,1.6 -2.2,3.1 -3.7,4.1 -1.2,0.8 -3.5,1.1 -4.3,2.3 -1.2,1.7 -1.8,4.3 -2.6,6.3 -0.6,1.4 -1.4,4.1 -1.3,6.3 0.1,1.6 0.6,2.9 2.1,3.5 1.2,0.4 2.5,0.3 3.7,0.5 2.4,0.5 3.7,0 5.6,-1.5 1.6,-1.3 2.9,-3 4.4,-4.5 1.7,-1.8 3.5,-3.5 5.2,-5.3 3.6,-3.6 7.1,-7.2 10.7,-10.8 0.9,-0.9 1.8,-1.9 2.5,-2.9 0.9,-1.3 2.4,-1.9 3.9,-1.5 0.5,0.2 1,0.2 1.5,-0.2 0.4,-0.3 0.6,-0.7 0.8,-1.2 1.6,-4.1 2.1,-8.6 1.4,-12.8 z"
   id="path21"
   style="fill:url(#SVGID_2_)" />
				</g>
			</g><g
   id="g38"
   transform="translate(-0.2,0.2)">
				<linearGradient
   id="SVGID_3_"
   gradientUnits="userSpaceOnUse"
   x1="439.164"
   y1="197.2643"
   x2="313.04175"
   y2="234.71368">
					<stop
   offset="0"
   style="stop-color:#AD0029"
   id="stop31" />
					<stop
   offset="1"
   style="stop-color:#842d2a;stop-opacity:1"
   id="stop33" />
				</linearGradient>
				<path
   class="st3"
   d="m 433.2,202.7 c 0,0 0,0 0,0 -0.2,0.4 -0.8,0.5 -1.1,0.2 -0.7,-0.5 -2.2,-1.6 -3.9,-2.3 -2.1,-0.9 -4.7,-1.5 -6.8,-0.2 -0.1,0 -0.1,0.1 -0.2,0.1 -4.5,3.1 1.1,4.9 3.1,7.6 0.3,0.4 0.6,0.9 1,1.4 -48.4,6.8 -92.9,27.2 -129.2,57.3 -0.3,-0.6 -0.6,-1.2 -0.7,-1.9 -0.5,-2 0,-4.1 -0.6,-6 -1.1,-3.2 -4.8,-4.4 -7.1,-6.8 -0.1,-0.2 -0.3,-0.3 -0.4,-0.5 0,0 0,0 0,0 -1.4,-1.6 -2.2,-3.7 -2.2,-5.8 -0.1,-3.5 1.8,-6.8 2.8,-10.2 0.9,-3.4 0.5,-7.9 -2.7,-9.4 -1.9,-0.9 -4,-0.4 -6.2,0.1 -2.9,0.7 -6,-0.3 -7.7,-2.8 -0.9,-1.3 -2.3,-2.4 -3.8,-3.2 -1.1,-0.5 -2.3,-0.8 -3.5,-1 -1,-0.1 -2.1,-0.1 -3.1,0 43.8,-26.6 96,-40.6 151,-37 2.4,0.2 4.8,0.3 7.2,0.6 5.5,5.8 11.3,12.3 13.5,16.3 0.6,1.7 0.9,2.9 0.6,3.5 z"
   id="path36"
   style="fill:url(#SVGID_3_)" />
			</g><g
   id="g51">
				<linearGradient
   id="SVGID_4_"
   gradientUnits="userSpaceOnUse"
   x1="210.71021"
   y1="210.7242"
   x2="294.57111"
   y2="181.35583">
					<stop
   offset="0"
   style="stop-color:#F2CE30"
   id="stop44" />
					<stop
   offset="1"
   style="stop-color:#dc861b;stop-opacity:1"
   id="stop46" />
				</linearGradient>
				<path
   class="st4"
   d="m 409.8,173.9 c -2.1,-2 -3.4,-3.7 -4.4,-5.4 -19.2,-5.9 -39.3,-9.7 -60.2,-11 -54.6,-3.5 -106.4,10.2 -150,36.4 0.5,0.9 1.2,1.8 1.9,2.6 3.2,3 5.5,6.6 8.3,10.4 1.3,1.8 2.7,3.7 3.6,5.7 0.7,1.5 1.2,3.1 2.2,4.5 0.9,1.3 2.3,2.2 3.5,3.2 1.3,1 2.6,2.1 3.8,3.2 1.5,1.2 3.2,2.9 5.3,2.9 2.5,0.1 4.4,-2.1 6.8,-2.8 3.1,-1 6.4,0.6 9.6,0.9 4,0.4 8,-1 11.8,-2.5 0.1,0 0.2,-0.1 0.3,-0.1 2.7,-1 5.6,-2.1 8.4,-2.4 43.8,-26.6 96,-40.6 151,-37 2.4,0.2 4.8,0.3 7.2,0.6 -3.4,-3.6 -6.8,-6.9 -9.1,-9.2 z m -9.6,6.6 c -2,-1 -4.3,-1.8 -6.5,-0.9 -3.6,1.4 -7,-2.3 -8.6,-2.9 -0.8,-0.3 -2,-0.6 -3.2,-0.9 -1,-0.2 -1.1,-1.6 -0.2,-2 1.6,-0.8 3.9,-1.8 7,-2.4 6.1,-1.3 8.8,0.2 9.5,2.7 0.4,1.3 1.8,3.5 3,5.4 0.4,0.6 -0.3,1.4 -1,1 z"
   id="path49"
   style="fill:url(#SVGID_4_)" />
			</g><g
   id="g66"
   transform="translate(0.1,-0.1)">
				<g
   id="g64">
					<linearGradient
   id="SVGID_5_"
   gradientUnits="userSpaceOnUse"
   x1="375.4671"
   y1="132.4735"
   x2="214.767"
   y2="150.3291">
						<stop
   offset="0"
   style="stop-color:#67B752"
   id="stop57" />
						<stop
   offset="1"
   style="stop-color:#386539"
   id="stop59" />
					</linearGradient>
					<path
   class="st5"
   d="m 400.5,157.9 c -3.1,-3.9 -9,-6.3 -13.5,-8.2 -1.1,-0.5 -2.3,-0.9 -3.4,-1.3 -0.7,-0.2 -1.6,-0.3 -2.6,-0.4 -3.5,-0.2 -6.7,-2 -8.5,-5 0,0 0,-0.1 0,-0.1 0,0 0,0 0,0 -0.4,-0.7 -0.9,-1.4 -1.3,-2 -1.7,-2.4 -3.3,-4.9 -5,-7.3 v 0 c -1.1,-1.6 1.1,-3.4 2.4,-2 0.2,0.2 0.5,0.5 0.6,0.8 0.5,0.7 1.1,2.1 1.9,3 v 0 c 0.7,0.7 1.5,1.1 2.4,0.5 2,-1.2 -0.3,-7 -0.7,-8.8 0,-0.2 -0.1,-0.6 -0.1,-1 -0.2,-1.5 -0.4,-3.7 -1.2,-4.3 -0.8,-0.6 -2,0.3 -2.8,0.7 -1.4,0.8 -3.1,0.8 -4.6,0.3 -1.3,-0.5 -2.5,-0.8 -3.9,-0.6 -1,0.1 -2,0.5 -3,0.8 -3.3,1 -6.9,1.2 -10.3,0.5 -1.4,-0.3 -2.8,-0.7 -4.3,-1.1 -1.3,-0.4 -2.6,-0.7 -3.9,-1 -2.6,-0.6 -5.3,-1.2 -7.9,-1.6 -2.9,-0.5 -6.6,-2.7 -7.6,1.2 -0.3,1 -0.1,2.5 -0.2,3.8 0,1.3 -0.3,2.5 -1.1,3.2 -0.7,0.6 -1.7,0.8 -2.6,0.7 -1.3,-0.2 -2.4,-0.9 -3.4,-1.7 -0.4,-0.4 -0.9,-0.7 -1.3,-1.1 -5.2,-4.5 -11.5,-7.7 -18.2,-9.2 -2.2,-0.5 -3.3,-2.9 -2.4,-4.9 0.8,-1.8 1.5,-3.6 1.5,-5.6 0,-1.7 -0.8,-3.3 -2.2,-4.3 -2,-1.4 -3.6,-0.4 -5.2,0.2 -3.6,1.3 -7.5,0.6 -11.3,0.5 -9.6,-0.2 -18.9,3.3 -28.4,3.3 -1.9,0 -3.8,-0.1 -5.6,0.5 -4.8,1.7 -6.5,8 -11.1,10.1 -1.4,0.6 -2.9,0.9 -4.1,1.9 -2,1.7 -1.8,4.9 -2.8,7.4 -2.4,6.2 -11.2,6.8 -15.6,11.9 -1.8,2.1 -2.7,4.8 -4.8,6.6 -0.9,0.7 -1.9,1.3 -2.6,2.2 -1.2,1.4 -1.4,3.4 -2,5.1 -0.3,0.8 -0.8,1.7 -1.4,2.3 -2,2 -2.8,4.9 -1.9,7.6 l 0.1,0.4 c 2.3,6.6 1.2,14.3 -2.7,20.2 -0.4,0.6 -0.9,1.3 -1.1,2.1 -0.3,1.2 0.4,2.4 0.8,3.6 0.2,0.8 0.4,1.5 0.4,2.3 0.1,1.4 0.5,2.7 1.1,3.9 43.6,-26.2 95.4,-39.9 150,-36.4 20.9,1.3 41.1,5.1 60.2,11 -2.6,-4.4 -2.4,-7.6 -4.8,-10.7 z"
   id="path62"
   style="fill:url(#SVGID_5_)" />
				</g>
			</g><g
   id="g76"
   transform="matrix(1.113394,0,0,1.2209631,33.541154,-83.164663)">
				<text
   transform="scale(1.0060445,0.99399182)"
   class="st6 st7 st8"
   id="text74"
   style="font-style:normal;font-variant:normal;font-weight:normal;font-stretch:normal;font-family:Algerian;-inkscape-font-specification:Algerian;fill:#447a40;fill-opacity:1;stroke-width:1.03335"
   x="18.491747"
   y="320.36624"><tspan
     style="fill:#447a40;fill-opacity:1;stroke-width:1.03335"
     id="tspan20559">A I P</tspan></text>
			</g><g
   id="g84"
   transform="matrix(1.0653793,0,0,1,-12.132731,-16.483516)">
					<path
   class="st9"
   d="M 271.2,353.2 H 63.1 c -0.9,0 -1.6,-0.7 -1.6,-1.6 v -17.9 c 0,-0.9 0.7,-1.6 1.6,-1.6 h 208.2 c 0.9,0 1.6,0.7 1.6,1.6 v 17.9 c -0.1,0.9 -0.8,1.6 -1.7,1.6 z"
   id="path82"
   style="fill:#df9a1e;fill-opacity:1" />
				</g><g
   id="g92"
   transform="matrix(0.91758502,0,0,1,2.870497,-17.857143)">
					<text
   transform="scale(0.99974997,1.0002501)"
   class="st0 st7 st10 st11"
   id="text90"
   style="font-style:normal;font-variant:normal;font-weight:bold;font-stretch:normal;font-size:14px;font-family:'Comic Sans MS';-inkscape-font-specification:'Comic Sans MS Bold';letter-spacing:1.77470333px;stroke-width:0.99975"
   x="59.556919"
   y="347.43399"><tspan
     style="font-style:normal;font-variant:normal;font-weight:bold;font-stretch:normal;font-size:14px;font-family:'Comic Sans MS';-inkscape-font-specification:'Comic Sans MS Bold';stroke-width:0.99975"
     id="tspan10989">Africa Integration Partners</tspan></text>
				</g>
</svg>
