<?xml version="1.0" encoding="UTF-8" standalone="no"?>
<!-- Generator: Adobe Illustrator 25.1.0, SVG Export Plug-In . SVG Version: 6.00 Build 0)  -->

<svg
   version="1.1"
   x="0px"
   y="0px"
   viewBox="0 0 100 60"
   xml:space="preserve"
   id="svg108"
   sodipodi:docname="aip_logo.svg"
   inkscape:version="1.1 (c68e22c387, 2021-05-23)"
   width="100"
   height="60"
   inkscape:export-filename="C:\Users\Elvis Caleb\Downloads\aip_logo1.png"
   inkscape:export-xdpi="274.28601"
   inkscape:export-ydpi="274.28601"
   xmlns:inkscape="http://www.inkscape.org/namespaces/inkscape"
   xmlns:sodipodi="http://sodipodi.sourceforge.net/DTD/sodipodi-0.dtd"
   xmlns:xlink="http://www.w3.org/1999/xlink"
   xmlns="http://www.w3.org/2000/svg"
   xmlns:svg="http://www.w3.org/2000/svg"><defs
   id="defs112"><inkscape:path-effect
   effect="spiro"
   id="path-effect56891"
   is_visible="true"
   lpeversion="1" /><inkscape:path-effect
   effect="spiro"
   id="path-effect6217"
   is_visible="true"
   lpeversion="1" />
			
			
			
		
			
			
			
		
			
			
			
		
	
	

		
		
		
		
		
	
		
		
	</defs><sodipodi:namedview
   id="namedview110"
   pagecolor="#505050"
   bordercolor="#eeeeee"
   borderopacity="1"
   inkscape:pageshadow="0"
   inkscape:pageopacity="0"
   inkscape:pagecheckerboard="0"
   showgrid="false"
   inkscape:zoom="5.824"
   inkscape:cx="42.239011"
   inkscape:cy="11.933379"
   inkscape:window-width="1920"
   inkscape:window-height="1001"
   inkscape:window-x="-9"
   inkscape:window-y="-9"
   inkscape:window-maximized="1"
   inkscape:current-layer="svg108"
   width="100px" />
<style
   type="text/css"
   id="style2">
	.st0{fill:#FFFFFF;}
	.st1{fill:#D53D17;}
	.st2{fill:#FF8A26;}
	.st3{fill:#FF6803;}
	.st4{clip-path:url(#SVGID_2_);fill:#330402;}
	.st5{fill:#F1B900;}
	.st6{fill:#330402;}
	.st7{clip-path:url(#SVGID_4_);fill:#330402;}
	.st8{clip-path:url(#SVGID_4_);}
	.st9{font-family:'ChineseRocksRg-Regular';}
	.st10{font-size:60px;}
	.st11{font-family:'Ritaglio';}
	.st12{font-size:21px;}
</style>

<text
   xml:space="preserve"
   style="font-size:11px;line-height:0.65;font-family:sans-serif"
   x="92.71978"
   y="197.11539"
   id="text4934"><tspan
     sodipodi:role="line"
     id="tspan4932"
     x="92.71978"
     y="197.11539" /></text><text
   xml:space="preserve"
   style="font-size:11px;line-height:0.65;font-family:sans-serif"
   x="804.25824"
   y="135.98901"
   id="text13194"><tspan
     sodipodi:role="line"
     id="tspan13192"
     x="804.25824"
     y="135.98901" /></text>
<ellipse
   style="opacity:0.990228;fill:#0000ff;stroke:#ff6600;stroke-width:0.0410168;stroke-linecap:round;stroke-linejoin:round;stroke-dasharray:0.246101, 0.0820332;stroke-opacity:0;paint-order:stroke fill markers"
   id="path2466"
   cx="54.17627"
   cy="5.9669437"
   rx="4.4407172"
   ry="4.6963997" /><g
   id="g39"
   transform="matrix(0.11578707,0.02291607,-0.02546014,0.11175634,-0.82815187,0.55210549)"
   style="fill:#d0a014;fill-opacity:1">
			<path
   class="st3"
   d="m 385.1,282.5 c -2.8,7.3 -6.7,14.3 -9.5,17 -0.1,0.1 -0.2,0.2 -0.3,0.3 -2.5,2.2 -3.9,5.8 -5.2,9.4 -2.2,5.9 -4.3,11.8 -11,11.1 -10.9,-1.3 -1.9,-16.9 0,-23.6 1.9,-6.6 -0.9,-16.2 3,-18.4 0.1,0 0.1,-0.1 0.2,-0.1 2.4,-1.1 4.8,-1 7.1,-2.1 1.6,-0.8 3.3,-2.4 5,-5.5 0.2,-0.3 0.4,-0.6 0.6,-1 4.1,-6.8 10.3,-8.6 10.3,-8.6 5.6,0.5 3.7,11.3 -0.2,21.5 z"
   id="path27"
   style="fill:#d0a014;fill-opacity:1" />
			<g
   id="g37"
   style="fill:#d0a014;fill-opacity:1">
				<defs
   id="defs30">
					<path
   id="SVGID_1_"
   d="m 385.1,282.5 c -2.8,7.3 -6.7,14.3 -9.5,17 -0.1,0.1 -0.2,0.2 -0.3,0.3 -2.5,2.2 -3.9,5.8 -5.2,9.4 -2.2,5.9 -4.3,11.8 -11,11.1 -10.9,-1.3 -1.9,-16.9 0,-23.6 1.9,-6.6 -0.9,-16.2 3,-18.4 0.1,0 0.1,-0.1 0.2,-0.1 2.4,-1.1 4.8,-1 7.1,-2.1 1.6,-0.8 3.3,-2.4 5,-5.5 0.2,-0.3 0.4,-0.6 0.6,-1 4.1,-6.8 10.3,-8.6 10.3,-8.6 5.6,0.5 3.7,11.3 -0.2,21.5 z" />
				</defs>
				<clipPath
   id="SVGID_2_">
					<use
   xlink:href="#SVGID_1_"
   style="overflow:visible"
   id="use32"
   x="0"
   y="0"
   width="100%"
   height="100%" />
				</clipPath>
				<path
   class="st4"
   d="m 386.4,283 c -3.1,8.1 -7.4,15.9 -10.6,18.8 -0.1,0.1 -0.2,0.2 -0.3,0.3 -2.8,2.4 -4.4,6.4 -5.8,10.4 -2.5,6.6 -4.7,13.2 -12.3,12.3 -12.1,-1.4 -2.1,-18.8 0,-26.2 2.1,-7.3 -1,-18 3.3,-20.4 6.8,-0.5 16.5,0 25.7,4.8 z"
   clip-path="url(#SVGID_2_)"
   id="path35"
   style="fill:#d0a014;fill-opacity:1" />
			</g>
		</g><text
   xml:space="preserve"
   style="font-style:normal;font-variant:normal;font-weight:bold;font-stretch:normal;font-size:35.9479px;line-height:0.65;font-family:Arial;-inkscape-font-specification:'Arial Bold';fill:#ff4500;fill-opacity:1;stroke:#ff4500;stroke-width:2.86257;stroke-opacity:1"
   x="81.348167"
   y="38.774883"
   id="text7072"
   transform="scale(0.90344332,1.1068763)"><tspan
     sodipodi:role="line"
     id="tspan7070"
     x="81.348167"
     y="38.774883"
     style="font-style:normal;font-variant:normal;font-weight:bold;font-stretch:normal;font-size:35.9479px;font-family:Arial;-inkscape-font-specification:'Arial Bold';fill:#ff4500;fill-opacity:1;stroke:#ff4500;stroke-width:2.86257;stroke-opacity:1">P</tspan></text><path
   style="fill:#ff4500;fill-opacity:1;stroke:#ff4500;stroke-width:1.02212px;stroke-linecap:butt;stroke-linejoin:miter;stroke-opacity:1"
   d="M 14.134612,16.598581 6.0737056,42.975962 12.071211,42.616468 19.268217,17.451908 Z"
   id="path17255" /><path
   style="fill:#ff4500;fill-opacity:1;stroke:#ff4500;stroke-width:1px;stroke-linecap:butt;stroke-linejoin:miter;stroke-opacity:1"
   d="M 12.362637,31.25 26.270605,30.048077 25.927199,33.997253 10.817308,34.85577 Z"
   id="path17257" /><path
   class="st1"
   d="m 38.858961,25.855733 c -0.538402,0.562644 -1.065612,1.136758 -1.52552,1.699399 -0.953404,1.148233 -1.603987,2.250551 -1.357227,3.065801 0.03406,0.114809 0.08964,0.229658 0.157063,0.332993 0.302909,0.447821 0.493546,0.861182 0.594499,1.228624 0.100902,0.378925 0.112043,0.723392 0.05621,1.033411 -0.157075,0.895633 -0.830042,1.55013 -1.40212,1.997944 -0.05621,0.04587 -0.112043,0.09186 -0.168305,0.126324 -0.919791,0.665975 -1.592821,1.469745 -1.211419,2.445756 0.03406,0.09186 0.07837,0.172235 0.134591,0.264092 0.403823,0.688939 -0.123311,0.861175 -0.650571,1.090826 v 0 c -0.302909,0.137802 -0.605704,0.298559 -0.706669,0.597094 -0.291654,0.803766 -1.50306,3.513612 -3.365051,3.444719 -1.862015,-0.0689 -1.435771,0.884147 -2.366753,0.516705 -0.471125,-0.183712 -0.908574,-1.40085 -1.424567,-2.824669 -0.05621,-0.160757 -0.123311,-0.332993 -0.17956,-0.493746 -0.123311,-0.332992 -0.246685,-0.677466 -0.381377,-1.010458 -0.291654,-0.746354 -0.605703,-1.469745 -0.975863,-2.078316 -0.08963,-0.149245 -0.17956,-0.287048 -0.269169,-0.413361 -1.065612,-1.504198 -0.729115,-2.0898 -0.37016,-2.491688 0.145821,-0.160757 0.302896,-0.298558 0.37016,-0.447814 0.08963,-0.21818 0.08963,-0.90711 -0.0238,-1.733848 -0.03406,-0.218147 -0.06748,-0.447812 -0.112043,-0.665982 -0.17956,-0.872668 -0.471087,-1.779778 -0.919791,-2.376859 -0.05621,-0.0689 -0.100902,-0.137801 -0.157063,-0.195189 -0.616958,-0.677463 -0.89737,-1.217134 -0.987118,-1.641979 -0.06748,-0.367446 0,-0.643026 0.134591,-0.849705 0.04456,-0.08038 0.07837,-0.172235 0.08963,-0.287082 0.01013,-0.04587 0.01013,-0.103334 0.01013,-0.160757 0,-0.03443 0,-0.0689 0,-0.114844 0,-0.04587 -0.01013,-0.09186 -0.01013,-0.12629 0,-0.03443 -0.01013,-0.0689 -0.0238,-0.103334 -0.01013,-0.0689 -0.03406,-0.137803 -0.05621,-0.206704 -0.01013,-0.04587 -0.03406,-0.09186 -0.05621,-0.137801 -0.01013,-0.03443 -0.03406,-0.0689 -0.04469,-0.103335 0,-0.01153 -0.01013,-0.01153 -0.01013,-0.02296 -0.01013,-0.02296 -0.0238,-0.05739 -0.04494,-0.08038 -0.0238,-0.03443 -0.04494,-0.0689 -0.06748,-0.103334 -0.0238,-0.03443 -0.04469,-0.0689 -0.06748,-0.09186 -0.0238,-0.02296 -0.04469,-0.05745 -0.06748,-0.0689 -0.05621,-0.05739 -0.112043,-0.114809 -0.17956,-0.160757 -0.03406,-0.02296 -0.05621,-0.04591 -0.08964,-0.05747 -0.04469,-0.02296 -0.100902,-0.04587 -0.145833,-0.0689 -0.04469,-0.01154 -0.08963,-0.03443 -0.134578,-0.04591 -0.04469,-0.01153 -0.100902,-0.02296 -0.145833,-0.02296 -0.07837,-0.01153 -0.145834,-0.02296 -0.212958,-0.04591 -0.830068,-0.229659 -0.695477,-0.976001 -1.357265,-0.838217 -0.01013,0 -0.03406,0.01153 -0.05621,0.01153 -0.0238,0.01154 -0.04494,0.01154 -0.06748,0.02296 -0.302908,0.103334 -0.83008,0.378924 -1.458192,0.654504 -0.157075,0.0689 -0.325393,0.137801 -0.493572,0.206668 -0.2242,0.09186 -0.471087,0.172235 -0.706668,0.241136 -0.05621,0.02296 -0.123311,0.03443 -0.17956,0.05739 -0.05621,0.01153 -0.123311,0.03443 -0.17956,0.04587 -0.05621,0.01153 -0.123311,0.03443 -0.17956,0.04591 -0.05621,0.01153 -0.123311,0.02296 -0.17956,0.03443 -0.05621,0.01153 -0.123311,0.02296 -0.17956,0.02296 -0.04494,0.01153 -0.08963,0.01153 -0.134591,0.01153 -0.03406,0 -0.05621,0 -0.08963,0.01153 -0.05621,0.01153 -0.112043,0.01153 -0.168317,0.01153 -0.112043,0.01153 -0.224188,0.01153 -0.336636,0 -0.05621,0 -0.112043,-0.01153 -0.168318,-0.01153 -0.04494,0 -0.07837,-0.01153 -0.12331,-0.01153 -0.0238,0 -0.04494,0 -0.05621,-0.01153 -0.03406,0 -0.06748,-0.01153 -0.100902,-0.02296 -0.03406,0 -0.06748,-0.01153 -0.100902,-0.02296 -0.01013,0 -0.0238,0 -0.0238,0 -0.04494,-0.01153 -0.08963,-0.02296 -0.134591,-0.03443 -0.04494,-0.01153 -0.07837,-0.02296 -0.12331,-0.04587 -0.04494,-0.02296 -0.100902,-0.03443 -0.145835,-0.05739 -0.05621,-0.02296 -0.112043,-0.04591 -0.157075,-0.08038 -0.0238,-0.01153 -0.05621,-0.03443 -0.07837,-0.04591 -0.112043,-0.0689 -0.202044,-0.126289 -0.291653,-0.183712 -0.08964,-0.05739 -0.168318,-0.114808 -0.246685,-0.160757 -0.03406,-0.02296 -0.06748,-0.04588 -0.112043,-0.0689 -0.03406,-0.02296 -0.06748,-0.04591 -0.100902,-0.0689 -0.03406,-0.02296 -0.05621,-0.04591 -0.08963,-0.05739 -0.0238,-0.02296 -0.05621,-0.04591 -0.07837,-0.05739 -0.07837,-0.05739 -0.145833,-0.103335 -0.202058,-0.160757 -0.302895,-0.264092 -0.336635,-0.447814 -0.583282,-0.826731 -0.01013,-0.02296 -0.03406,-0.05739 -0.05621,-0.09186 -0.03406,-0.04591 -0.06748,-0.103334 -0.100902,-0.149278 -0.123311,-0.183713 -0.291654,-0.401887 -0.515993,-0.665982 -0.0238,-0.03443 -0.05621,-0.0689 -0.07837,-0.09186 -0.06748,-0.09186 -0.134578,-0.172235 -0.202044,-0.252614 -0.04494,-0.05739 -0.08964,-0.114845 -0.123311,-0.160757 -0.04469,-0.05739 -0.07837,-0.103335 -0.123311,-0.160757 -0.03406,-0.05745 -0.07837,-0.103335 -0.112043,-0.160757 -0.03406,-0.04594 -0.06748,-0.103335 -0.100902,-0.14928 -0.03406,-0.04594 -0.06748,-0.103335 -0.08963,-0.14928 -0.04469,-0.08038 -0.08963,-0.14928 -0.123311,-0.218146 -0.04469,-0.0689 -0.06748,-0.137802 -0.100902,-0.206703 -0.01013,-0.02296 -0.0238,-0.04594 -0.03406,-0.0689 -0.01013,-0.02296 -0.0238,-0.04594 -0.03406,-0.0689 -0.0238,-0.04594 -0.03406,-0.09186 -0.05621,-0.137803 -0.01013,-0.03443 -0.0238,-0.08038 -0.04494,-0.114808 -0.0238,-0.05739 -0.03406,-0.103335 -0.04494,-0.160757 -0.01013,-0.03443 -0.0238,-0.0689 -0.0238,-0.103335 -0.01013,-0.05745 -0.0238,-0.114808 -0.0238,-0.160757 l -0.01013,-0.08038 c -0.01013,-0.206668 0.01013,-0.401887 0.06748,-0.597081 0.0238,-0.08038 0.05621,-0.14928 0.08963,-0.229659 0.03406,-0.08038 0.07837,-0.149279 0.1233109,-0.229658 0.01013,-0.02296 0.03406,-0.04594 0.04494,-0.08038 0.13459,-0.19519 0.202057,-0.413371 0.2242,-0.631531 0.100902,-0.872666 -0.4374619,-1.860156 -0.145834,-2.14722 0.325394,-0.332992 1.09925,-0.780804 1.35724,-1.653471 0.03406,-0.103334 0.05621,-0.206668 0.06748,-0.321514 0.06748,-0.516705 0.415002,-0.815248 0.807609,-0.998964 0.448666,-0.206668 0.964658,-0.252613 1.200202,-0.252613 0.302897,0 1.088034,-1.871637 1.940523,-2.9854341 0.269169,-0.355954 0.549618,-0.643011 0.818825,-0.757838 0.06748,-0.03443 0.134579,-0.04591 0.202045,-0.05742 1.177743,-0.14928 0.818826,0.803768 1.536698,0.884148 0.202045,0.02296 0.538415,-0.103335 0.964659,-0.275569 0.23543,-0.09186 0.504738,-0.206669 0.785188,-0.321516 0.841246,-0.332991 1.817109,-0.6430152 2.613514,-0.459295 0.157075,0.03443 0.302908,0.09186 0.437461,0.160757 0.100902,0.05743 0.202045,0.114809 0.280412,0.172236 0.145833,0.09186 0.246684,0.183712 0.336635,0.26409 0.57204,0.562641 0.03406,0.9530421 0.672992,1.4812361 0.0238,0.02296 0.05621,0.04591 0.07837,0.0689 0.168318,0.149278 0.347713,0.298524 0.538414,0.447814 0.639329,0.528193 1.334781,0.953038 2.041437,0.516701 0.930995,-0.585595 1.503073,-1.171202 3.151966,-0.287046 1.648856,0.872667 3.578173,-0.734872 3.791295,1.974978 0,0 0.01013,0.03443 0.03406,0.09186 0.0238,0.08038 0.06748,0.218147 0.134591,0.40188 0.123311,0.34447 0.302896,0.849697 0.52716,1.4353 0.190815,0.47078 0.403836,0.998974 0.650583,1.538648 0.123311,0.27557 0.257927,0.562644 0.403824,0.838217 0.605703,1.228618 1.323601,2.399824 2.052691,3.019877 0.280411,0.241136 0.572065,0.390401 0.852451,0.436329 0.426283,0.0689 0.796405,0.08038 1.121696,0.0689 0.583282,-0.02296 1.020731,-0.126289 1.357227,-0.14928 0.493572,-0.04594 0.773996,0.0689 0.998323,0.815248 0.134591,0.688951 -1.50306,2.262042 -3.11829,3.94995 z"
   id="path2753"
   style="fill:#d0a014;fill-opacity:1;stroke-width:0.113489" /><rect
   style="opacity:0.990228;fill:#ff4500;fill-opacity:1;stroke:#ff6600;stroke-width:0.262902;stroke-linecap:round;stroke-linejoin:round;stroke-dasharray:1.5774, 0.525807;stroke-opacity:0;paint-order:stroke fill markers"
   id="rect6274"
   width="5.967485"
   height="32.584553"
   x="51.547043"
   y="12.232587" /><path
   style="fill:none;stroke:none;stroke-width:0.247185px;stroke-linecap:butt;stroke-linejoin:miter;stroke-opacity:1"
   d="m 18.387873,49.07932 c 46.407984,52.53484 88.200817,-3.589999 87.980007,-5.17899"
   id="path60730"
   sodipodi:nodetypes="cc" /><path
   sodipodi:type="star"
   style="opacity:0.990228;fill:#ff4500;fill-opacity:1;stroke:none;stroke-width:6.5;stroke-linecap:round;stroke-linejoin:round;stroke-miterlimit:4;stroke-dasharray:none;stroke-dashoffset:0;stroke-opacity:1;paint-order:stroke fill markers"
   id="path65716"
   inkscape:flatsided="false"
   sodipodi:sides="5"
   sodipodi:cx="385.30219"
   sodipodi:cy="144.91759"
   sodipodi:r1="31.638166"
   sodipodi:r2="13.920794"
   sodipodi:arg1="1.0974403"
   sodipodi:arg2="1.7257588"
   inkscape:rounded="0"
   inkscape:randomized="0"
   inkscape:transform-center-x="-0.4631422"
   inkscape:transform-center-y="-0.47497907"
   transform="matrix(0.07633083,0,0,0.07529423,41.481207,44.634955)"
   d="m 399.72526,173.07693 -16.57165,-14.40536 -20.17557,8.66489 8.57938,-20.21208 -14.47539,-16.51051 21.874,1.91361 11.22929,-18.86895 4.93949,21.39475 21.41547,4.84886 -18.82122,11.30908 z" /><path
   sodipodi:type="star"
   style="opacity:0.990228;fill:#ff4500;fill-opacity:1;stroke:none;stroke-width:6.5;stroke-linecap:round;stroke-linejoin:round;stroke-miterlimit:4;stroke-dasharray:none;stroke-dashoffset:0;stroke-opacity:1;paint-order:stroke fill markers"
   id="path65716-4"
   inkscape:flatsided="false"
   sodipodi:sides="5"
   sodipodi:cx="385.30219"
   sodipodi:cy="144.91759"
   sodipodi:r1="31.638166"
   sodipodi:r2="13.920794"
   sodipodi:arg1="1.0974403"
   sodipodi:arg2="1.7257588"
   inkscape:rounded="0"
   inkscape:randomized="0"
   inkscape:transform-center-x="-0.4631422"
   inkscape:transform-center-y="-0.47497907"
   transform="matrix(0.07633083,0,0,0.07529423,-0.6458128,44.540949)"
   d="m 399.72526,173.07693 -16.57165,-14.40536 -20.17557,8.66489 8.57938,-20.21208 -14.47539,-16.51051 21.874,1.91361 11.22929,-18.86895 4.93949,21.39475 21.41547,4.84886 -18.82122,11.30908 z" /><text
   xml:space="preserve"
   style="font-size:8.71543px;line-height:0.65;font-family:sans-serif;fill:#d0a014;fill-opacity:1;stroke-width:0.968381"
   x="1.133615"
   y="56.533218"
   id="text85713"
   transform="scale(0.9683808,1.0326516)"><tspan
     sodipodi:role="line"
     id="tspan85711"
     x="1.133615"
     y="56.533218"
     style="fill:#d0a014;fill-opacity:1;stroke-width:0.968381">Africa</tspan></text><text
   xml:space="preserve"
   style="font-size:8.14243px;line-height:0.65;font-family:sans-serif;fill:#ff4500;fill-opacity:1;stroke-width:0.904714"
   x="35.622402"
   y="52.467762"
   id="text92305"
   transform="scale(0.9047144,1.1053212)"><tspan
     sodipodi:role="line"
     id="tspan92303"
     x="35.622402"
     y="52.467762"
     style="fill:#ff4500;fill-opacity:1;stroke-width:0.904714">Intgration</tspan></text><text
   xml:space="preserve"
   style="font-size:7.65755px;line-height:0.65;font-family:sans-serif;fill:#0000ff;fill-opacity:0.992157;stroke-width:0.850839"
   x="87.798515"
   y="48.838963"
   id="text95326"
   transform="scale(0.85083943,1.1753099)"><tspan
     sodipodi:role="line"
     id="tspan95324"
     x="87.798515"
     y="48.838963"
     style="fill:#0000ff;fill-opacity:0.992157;stroke-width:0.850839">patners</tspan></text></svg>
