<?xml version="1.0" encoding="UTF-8" standalone="no"?>
<!-- Generator: Adobe Illustrator 25.1.0, SVG Export Plug-In . SVG Version: 6.00 Build 0)  -->

<svg
   version="1.1"
   x="0px"
   y="0px"
   viewBox="0 0 100 100"
   xml:space="preserve"
   id="svg108"
   sodipodi:docname="africa.svg"
   inkscape:version="1.1 (c68e22c387, 2021-05-23)"
   width="100"
   height="100"
   xmlns:inkscape="http://www.inkscape.org/namespaces/inkscape"
   xmlns:sodipodi="http://sodipodi.sourceforge.net/DTD/sodipodi-0.dtd"
   xmlns:xlink="http://www.w3.org/1999/xlink"
   xmlns="http://www.w3.org/2000/svg"
   xmlns:svg="http://www.w3.org/2000/svg"><defs
   id="defs112"><inkscape:path-effect
   effect="spiro"
   id="path-effect56891"
   is_visible="true"
   lpeversion="1" /><inkscape:path-effect
   effect="spiro"
   id="path-effect6217"
   is_visible="true"
   lpeversion="1" />
			
			
			
		
			
			
			
		
			
			
			
		
	
	

		
		
		
		
		
	
		
		
	</defs><sodipodi:namedview
   id="namedview110"
   pagecolor="#505050"
   bordercolor="#eeeeee"
   borderopacity="1"
   inkscape:pageshadow="0"
   inkscape:pageopacity="0"
   inkscape:pagecheckerboard="0"
   showgrid="false"
   inkscape:zoom="1.456"
   inkscape:cx="80.357143"
   inkscape:cy="211.19505"
   inkscape:window-width="1920"
   inkscape:window-height="1001"
   inkscape:window-x="-9"
   inkscape:window-y="-9"
   inkscape:window-maximized="1"
   inkscape:current-layer="svg108"
   width="100px" />
<style
   type="text/css"
   id="style2">
	.st0{fill:#FFFFFF;}
	.st1{fill:#D53D17;}
	.st2{fill:#FF8A26;}
	.st3{fill:#FF6803;}
	.st4{clip-path:url(#SVGID_2_);fill:#330402;}
	.st5{fill:#F1B900;}
	.st6{fill:#330402;}
	.st7{clip-path:url(#SVGID_4_);fill:#330402;}
	.st8{clip-path:url(#SVGID_4_);}
	.st9{font-family:'ChineseRocksRg-Regular';}
	.st10{font-size:60px;}
	.st11{font-family:'Ritaglio';}
	.st12{font-size:21px;}
</style>

<text
   xml:space="preserve"
   style="font-size:11px;line-height:0.65;font-family:sans-serif"
   x="92.71978"
   y="197.11539"
   id="text4934"><tspan
     sodipodi:role="line"
     id="tspan4932"
     x="92.71978"
     y="197.11539" /></text><text
   xml:space="preserve"
   style="font-size:11px;line-height:0.65;font-family:sans-serif"
   x="804.25824"
   y="135.98901"
   id="text13194"><tspan
     sodipodi:role="line"
     id="tspan13192"
     x="804.25824"
     y="135.98901" /></text>
<g
   id="g77618"
   transform="matrix(0.44816085,0,0,0.45122433,-257.10951,-156.05958)"><ellipse
     style="opacity:0.990228;fill:#ffffff;stroke:#333333;stroke-width:3.60869;stroke-linecap:round;stroke-linejoin:round;stroke-miterlimit:4;stroke-dasharray:none;stroke-dashoffset:0;stroke-opacity:1;paint-order:stroke fill markers"
     id="path24575"
     cx="683.3562"
     cy="461.53848"
     rx="103.09341"
     ry="98.318634" /><ellipse
     style="opacity:0.990228;fill:#ff6600;stroke:none;stroke-width:6.88047;stroke-linecap:round;stroke-linejoin:round;stroke-miterlimit:4;stroke-dasharray:none;stroke-dashoffset:0;stroke-opacity:1;paint-order:stroke fill markers"
     id="path73392"
     cx="683.08826"
     cy="452.89285"
     rx="100.0445"
     ry="89.62912" /><ellipse
     style="opacity:0.990228;fill:#0000ff;stroke:none;stroke-width:6.56572;stroke-linecap:round;stroke-linejoin:round;stroke-miterlimit:4;stroke-dasharray:none;stroke-dashoffset:0;stroke-opacity:1;paint-order:stroke fill markers"
     id="path73518"
     cx="664.49176"
     cy="460.16483"
     rx="86.195053"
     ry="86.53846" /><ellipse
     style="opacity:0.990228;fill:#ffffff;stroke:none;stroke-width:6.88885;stroke-linecap:round;stroke-linejoin:round;stroke-miterlimit:4;stroke-dasharray:none;stroke-dashoffset:0;stroke-opacity:1;paint-order:stroke fill markers"
     id="path73542"
     cx="680.28839"
     cy="470.81036"
     rx="97.184067"
     ry="86.881866" /><g
     id="g16538"
     transform="matrix(0.4453734,0,0,0.41598485,561.55267,373.31069)"><ellipse
       style="opacity:0.990228;fill:#0000ff;stroke:#ff6600;stroke-width:0.354492;stroke-linecap:round;stroke-linejoin:round;stroke-dasharray:2.12695, 0.708983;stroke-opacity:0;paint-order:stroke fill markers"
       id="path2466"
       cx="288.80518"
       cy="121.22141"
       rx="39.814243"
       ry="39.126362" /><path
       class="st1"
       d="m 307.76192,122.48939 c -0.79169,0.86183 -1.56689,1.74123 -2.24312,2.60306 -1.40194,1.75881 -2.35856,3.44729 -1.99571,4.69605 0.0494,0.17589 0.13195,0.35176 0.23091,0.51006 0.44533,0.68595 0.72571,1.31912 0.87416,1.88195 0.14844,0.58042 0.16493,1.10806 0.0825,1.58293 -0.23091,1.37189 -1.22052,2.37442 -2.06168,3.06036 -0.0825,0.0703 -0.16494,0.14071 -0.2474,0.19348 -1.35247,1.02011 -2.34208,2.25129 -1.7813,3.7463 0.0494,0.14069 0.11546,0.26382 0.19792,0.40452 0.59378,1.05529 -0.18142,1.31911 -0.95662,1.67088 v 0 c -0.44532,0.21106 -0.89064,0.4573 -1.03908,0.9146 -0.42883,1.23117 -2.21013,5.38199 -4.94804,5.27646 -2.73792,-0.10552 -2.11116,1.3543 -3.48012,0.79147 -0.69273,-0.2814 -1.33597,-2.14576 -2.09467,-4.3267 -0.0825,-0.24624 -0.18143,-0.51006 -0.26389,-0.7563 -0.18143,-0.51006 -0.36287,-1.03771 -0.56078,-1.54777 -0.42883,-1.14323 -0.89065,-2.25129 -1.43494,-3.18347 -0.13194,-0.22863 -0.26389,-0.4397 -0.39584,-0.63317 -1.56687,-2.30406 -1.07208,-3.20106 -0.54429,-3.81665 0.21442,-0.24624 0.44532,-0.4573 0.54429,-0.68594 0.13195,-0.33418 0.13195,-1.38947 -0.0329,-2.65583 -0.0494,-0.33417 -0.099,-0.68594 -0.16493,-1.02012 -0.26389,-1.33671 -0.69272,-2.72618 -1.35246,-3.64076 -0.0825,-0.10553 -0.14845,-0.21106 -0.2309,-0.299 -0.90716,-1.03771 -1.31949,-1.86435 -1.45143,-2.51511 -0.099,-0.56284 0,-0.98496 0.19792,-1.30154 0.0659,-0.12312 0.11545,-0.26382 0.13195,-0.43971 0.0165,-0.0703 0.0165,-0.15829 0.0165,-0.24623 0,-0.0528 0,-0.10553 0,-0.17589 0,-0.0703 -0.0165,-0.1407 -0.0165,-0.19347 0,-0.0528 -0.0165,-0.10553 -0.033,-0.15828 -0.0165,-0.10554 -0.0494,-0.21107 -0.0825,-0.31659 -0.0165,-0.0703 -0.0494,-0.14072 -0.0825,-0.21107 -0.0165,-0.0528 -0.0494,-0.10553 -0.0659,-0.15829 0,-0.0176 -0.0165,-0.0176 -0.0165,-0.0352 -0.0165,-0.0352 -0.033,-0.0879 -0.0659,-0.12311 -0.033,-0.0528 -0.0659,-0.10553 -0.099,-0.1583 -0.0329,-0.0528 -0.0659,-0.10552 -0.099,-0.1407 -0.033,-0.0352 -0.0659,-0.088 -0.099,-0.10554 -0.0825,-0.0879 -0.16493,-0.17589 -0.26389,-0.24623 -0.0494,-0.0352 -0.0825,-0.0703 -0.13195,-0.088 -0.0659,-0.0352 -0.14844,-0.0703 -0.21442,-0.10553 -0.0659,-0.0176 -0.13194,-0.0528 -0.19791,-0.0703 -0.0659,-0.0176 -0.14845,-0.0352 -0.21442,-0.0352 -0.11545,-0.0176 -0.21442,-0.0351 -0.31337,-0.0703 -1.22052,-0.35176 -1.02261,-1.49499 -1.99571,-1.28394 -0.0165,0 -0.0495,0.0176 -0.0825,0.0176 -0.033,0.0176 -0.0659,0.0176 -0.099,0.0351 -0.44533,0.1583 -1.22052,0.58042 -2.14415,1.00254 -0.23092,0.10553 -0.47832,0.21105 -0.72572,0.31658 -0.32987,0.14071 -0.69272,0.26383 -1.03908,0.36936 -0.0825,0.0351 -0.18143,0.0528 -0.2639,0.0879 -0.0825,0.0176 -0.18143,0.0528 -0.2639,0.0703 -0.0825,0.0176 -0.18143,0.0528 -0.26389,0.0703 -0.0825,0.0176 -0.18143,0.0352 -0.2639,0.0528 -0.0825,0.0176 -0.18142,0.0352 -0.26389,0.0352 -0.066,0.0176 -0.13195,0.0176 -0.19792,0.0176 -0.0495,0 -0.0825,0 -0.13195,0.0176 -0.0825,0.0176 -0.16494,0.0176 -0.2474,0.0176 -0.16494,0.0176 -0.32987,0.0176 -0.49481,0 -0.0825,0 -0.16493,-0.0176 -0.2474,-0.0176 -0.066,0 -0.11545,-0.0176 -0.18143,-0.0176 -0.0329,0 -0.0659,0 -0.0825,-0.0176 -0.0494,0 -0.099,-0.0176 -0.14843,-0.0352 -0.0494,0 -0.099,-0.0176 -0.14845,-0.0351 -0.0165,0 -0.0329,0 -0.0329,0 -0.0659,-0.0176 -0.13195,-0.0352 -0.19793,-0.0528 -0.066,-0.0176 -0.11545,-0.0352 -0.18143,-0.0703 -0.0659,-0.0351 -0.14843,-0.0528 -0.21441,-0.0879 -0.0825,-0.0352 -0.16493,-0.0703 -0.23091,-0.12311 -0.033,-0.0176 -0.0825,-0.0528 -0.11546,-0.0703 -0.16492,-0.10553 -0.29687,-0.19347 -0.42882,-0.28141 -0.13195,-0.0879 -0.2474,-0.17588 -0.36286,-0.24623 -0.0494,-0.0351 -0.099,-0.0703 -0.16493,-0.10554 -0.0494,-0.0352 -0.099,-0.0703 -0.14844,-0.10553 -0.0494,-0.0351 -0.0825,-0.0703 -0.13194,-0.0879 -0.033,-0.0351 -0.0825,-0.0703 -0.11547,-0.0879 -0.11544,-0.0879 -0.2144,-0.1583 -0.29687,-0.24624 -0.44532,-0.40453 -0.49481,-0.68594 -0.85766,-1.26635 -0.0165,-0.0351 -0.0495,-0.0879 -0.0825,-0.1407 -0.0495,-0.0703 -0.099,-0.1583 -0.14843,-0.22865 -0.18143,-0.28142 -0.42884,-0.61559 -0.75871,-1.02012 -0.0329,-0.0528 -0.0825,-0.10553 -0.11544,-0.14071 -0.099,-0.1407 -0.19793,-0.26382 -0.29689,-0.38693 -0.066,-0.0879 -0.13195,-0.17589 -0.18143,-0.24624 -0.0659,-0.0879 -0.11545,-0.1583 -0.18143,-0.24623 -0.0495,-0.088 -0.11545,-0.1583 -0.16493,-0.24624 -0.0494,-0.0704 -0.099,-0.1583 -0.14844,-0.22865 -0.0494,-0.0704 -0.099,-0.15829 -0.13195,-0.22865 -0.0659,-0.12311 -0.13195,-0.22864 -0.18142,-0.33417 -0.0659,-0.10553 -0.099,-0.21106 -0.14845,-0.3166 -0.0165,-0.0351 -0.0329,-0.0704 -0.0495,-0.10552 -0.0165,-0.0352 -0.0329,-0.0704 -0.0494,-0.10553 -0.0329,-0.0704 -0.0495,-0.14071 -0.0825,-0.21107 -0.0165,-0.0528 -0.0329,-0.1231 -0.066,-0.17587 -0.0329,-0.0879 -0.0494,-0.1583 -0.066,-0.24624 -0.0165,-0.0528 -0.033,-0.10553 -0.033,-0.15829 -0.0165,-0.088 -0.0329,-0.17588 -0.0329,-0.24624 l -0.0165,-0.12312 c -0.0165,-0.31658 0.0165,-0.61559 0.099,-0.91458 0.0329,-0.12312 0.0825,-0.22865 0.13195,-0.35177 0.0494,-0.12312 0.11545,-0.22864 0.18143,-0.35176 0.0165,-0.0352 0.0494,-0.0704 0.066,-0.12312 0.19792,-0.299 0.29689,-0.63318 0.32987,-0.96735 0.14843,-1.33671 -0.64324,-2.8493 -0.21442,-3.28901 0.47832,-0.51005 1.61637,-1.196 1.99571,-2.53271 0.0495,-0.15829 0.0825,-0.31658 0.099,-0.49247 0.099,-0.79147 0.61026,-1.24876 1.18754,-1.53017 0.65973,-0.31659 1.41844,-0.38694 1.7648,-0.38694 0.44532,0 1.59986,-2.86689 2.85336,-4.57295 0.39585,-0.545233 0.80818,-0.984938 1.20403,-1.160824 0.099,-0.05277 0.19791,-0.07035 0.29688,-0.08794 1.7318,-0.228644 1.20402,1.231179 2.25959,1.3543 0.29689,0.03517 0.7917,-0.158298 1.41845,-0.42212 0.34636,-0.140709 0.7422,-0.316588 1.15454,-0.492475 1.23701,-0.51006 2.67194,-0.984938 3.84298,-0.703527 0.2309,0.05276 0.44532,0.140705 0.64324,0.246238 0.14844,0.08794 0.29689,0.175881 0.41234,0.263822 0.21442,0.140705 0.36285,0.281406 0.4948,0.404527 0.84116,0.861825 0.0495,1.459824 0.98961,2.268886 0.033,0.03517 0.0825,0.07035 0.11546,0.105529 0.2474,0.228648 0.51129,0.457293 0.79169,0.685944 0.94012,0.80906 1.96271,1.45982 3.00181,0.79146 1.36894,-0.896991 2.21012,-1.793993 4.63466,-0.4397 2.42454,1.33671 5.26141,-1.125647 5.57479,3.02518 0,0 0.0165,0.0528 0.0494,0.14071 0.0329,0.12311 0.099,0.33417 0.19793,0.61558 0.18143,0.52765 0.44532,1.30153 0.77519,2.19853 0.28039,0.72112 0.59377,1.53018 0.95662,2.35683 0.18143,0.42212 0.37935,0.86183 0.59376,1.28394 0.89065,1.88194 1.94624,3.67594 3.01831,4.62571 0.41234,0.36935 0.84117,0.598 1.25349,0.66835 0.62677,0.10553 1.17105,0.12312 1.64936,0.10553 0.85766,-0.0352 1.5009,-0.19346 1.9957,-0.22864 0.72572,-0.0704 1.13806,0.10552 1.46793,1.24876 0.19791,1.0553 -2.21013,3.46489 -4.58518,6.05035 z"
       id="path2753"
       style="fill:#2b0000;stroke-width:0.170321" /><g
       id="g39"
       transform="matrix(0.22858727,0,0,0.18407411,222.09813,90.669424)">
			<path
   class="st3"
   d="m 385.1,282.5 c -2.8,7.3 -6.7,14.3 -9.5,17 -0.1,0.1 -0.2,0.2 -0.3,0.3 -2.5,2.2 -3.9,5.8 -5.2,9.4 -2.2,5.9 -4.3,11.8 -11,11.1 -10.9,-1.3 -1.9,-16.9 0,-23.6 1.9,-6.6 -0.9,-16.2 3,-18.4 0.1,0 0.1,-0.1 0.2,-0.1 2.4,-1.1 4.8,-1 7.1,-2.1 1.6,-0.8 3.3,-2.4 5,-5.5 0.2,-0.3 0.4,-0.6 0.6,-1 4.1,-6.8 10.3,-8.6 10.3,-8.6 5.6,0.5 3.7,11.3 -0.2,21.5 z"
   id="path27"
   style="fill:#2b0000" />
			<g
   id="g37">
				<defs
   id="defs30">
					<path
   id="SVGID_1_"
   d="m 385.1,282.5 c -2.8,7.3 -6.7,14.3 -9.5,17 -0.1,0.1 -0.2,0.2 -0.3,0.3 -2.5,2.2 -3.9,5.8 -5.2,9.4 -2.2,5.9 -4.3,11.8 -11,11.1 -10.9,-1.3 -1.9,-16.9 0,-23.6 1.9,-6.6 -0.9,-16.2 3,-18.4 0.1,0 0.1,-0.1 0.2,-0.1 2.4,-1.1 4.8,-1 7.1,-2.1 1.6,-0.8 3.3,-2.4 5,-5.5 0.2,-0.3 0.4,-0.6 0.6,-1 4.1,-6.8 10.3,-8.6 10.3,-8.6 5.6,0.5 3.7,11.3 -0.2,21.5 z" />
				</defs>
				<clipPath
   id="SVGID_2_">
					<use
   xlink:href="#SVGID_1_"
   style="overflow:visible"
   id="use32"
   x="0"
   y="0"
   width="100%"
   height="100%" />
				</clipPath>
				<path
   class="st4"
   d="m 386.4,283 c -3.1,8.1 -7.4,15.9 -10.6,18.8 -0.1,0.1 -0.2,0.2 -0.3,0.3 -2.8,2.4 -4.4,6.4 -5.8,10.4 -2.5,6.6 -4.7,13.2 -12.3,12.3 -12.1,-1.4 -2.1,-18.8 0,-26.2 2.1,-7.3 -1,-18 3.3,-20.4 6.8,-0.5 16.5,0 25.7,4.8 z"
   clip-path="url(#SVGID_2_)"
   id="path35" />
			</g>
		</g></g><text
     xml:space="preserve"
     style="font-style:normal;font-variant:normal;font-weight:bold;font-stretch:normal;font-size:79.9392px;line-height:0.65;font-family:'Lucida Calligraphy';-inkscape-font-specification:'Lucida Calligraphy Bold';fill:#ff6600;stroke-width:6.36566"
     x="649.47351"
     y="450.20175"
     id="text7072"
     transform="scale(0.90652584,1.1031125)"><tspan
       sodipodi:role="line"
       id="tspan7070"
       x="649.47351"
       y="450.20175"
       style="font-style:normal;font-variant:normal;font-weight:bold;font-stretch:normal;font-size:79.9392px;font-family:'Lucida Calligraphy';-inkscape-font-specification:'Lucida Calligraphy Bold';fill:#ff6600;stroke-width:6.36566">A  P</tspan></text><g
     id="g24803"
     transform="matrix(0.55491704,0,0,0.54448961,253.19051,269.29112)"><rect
       style="opacity:0.990228;fill:#ff6600;stroke:#ff6600;stroke-width:0.608115;stroke-linecap:round;stroke-linejoin:round;stroke-dasharray:3.64869, 1.21624;stroke-opacity:0;paint-order:stroke fill markers"
       id="rect6274"
       width="16.188587"
       height="64.265518"
       x="780.71069"
       y="334.28207" /><rect
       style="opacity:0.990228;fill:#ff6600;stroke:#ff6600;stroke-width:0.981349;stroke-linecap:round;stroke-linejoin:round;stroke-dasharray:5.8881, 1.9627;stroke-opacity:0;paint-order:stroke fill markers"
       id="rect24697"
       width="43.974697"
       height="13.068101"
       x="766.70758"
       y="386.73532" /></g><text
     xml:space="preserve"
     style="font-size:9.35696px;line-height:44.4456px;font-family:sans-serif;letter-spacing:0.895778px;writing-mode:lr-tb;direction:ltr;fill:#0000ff;stroke-width:0.850628"
     id="text26677"
     transform="matrix(1.0108936,0,0,1.1427216,-13.984083,-65.50033)"><textPath
       xlink:href="#path60730"
       startOffset="50%"
       id="textPath64487"
       style="stroke-width:0.850628"><tspan
         id="tspan26675"
         style="text-align:center;writing-mode:lr-tb;direction:ltr;baseline-shift:baseline;text-anchor:middle;stroke-width:0.850628"
         dy="0">Africa    Integration    Patners</tspan></textPath></text><path
     style="fill:none;stroke:none;stroke-width:0.549679px;stroke-linecap:butt;stroke-linejoin:miter;stroke-opacity:1"
     d="m 594.80611,494.20217 c 103.55207,116.42732 196.80616,-7.95613 196.31345,-11.47764"
     id="path60730"
     sodipodi:nodetypes="cc" /><path
     sodipodi:type="star"
     style="opacity:0.990228;fill:#ff6600;stroke:none;stroke-width:6.5;stroke-linecap:round;stroke-linejoin:round;stroke-miterlimit:4;stroke-dasharray:none;stroke-dashoffset:0;stroke-opacity:1;paint-order:stroke fill markers"
     id="path65716"
     inkscape:flatsided="false"
     sodipodi:sides="5"
     sodipodi:cx="385.30219"
     sodipodi:cy="144.91759"
     sodipodi:r1="31.638166"
     sodipodi:r2="13.920794"
     sodipodi:arg1="1.0974403"
     sodipodi:arg2="1.7257588"
     inkscape:rounded="0"
     inkscape:randomized="0"
     inkscape:transform-center-x="-0.4631422"
     inkscape:transform-center-y="-0.47497907"
     transform="matrix(0.17032017,0,0,0.16686652,538.27147,487.01629)"
     d="m 399.72526,173.07693 -16.57165,-14.40536 -20.17557,8.66489 8.57938,-20.21208 -14.47539,-16.51051 21.874,1.91361 11.22929,-18.86895 4.93949,21.39475 21.41547,4.84886 -18.82122,11.30908 z" /><path
     sodipodi:type="star"
     style="opacity:0.990228;fill:#ff6600;stroke:none;stroke-width:6.5;stroke-linecap:round;stroke-linejoin:round;stroke-miterlimit:4;stroke-dasharray:none;stroke-dashoffset:0;stroke-opacity:1;paint-order:stroke fill markers"
     id="path65716-4"
     inkscape:flatsided="false"
     sodipodi:sides="5"
     sodipodi:cx="385.30219"
     sodipodi:cy="144.91759"
     sodipodi:r1="31.638166"
     sodipodi:r2="13.920794"
     sodipodi:arg1="1.0974403"
     sodipodi:arg2="1.7257588"
     inkscape:rounded="0"
     inkscape:randomized="0"
     inkscape:transform-center-x="-0.4631422"
     inkscape:transform-center-y="-0.47497907"
     transform="matrix(0.17032017,0,0,0.16686652,703.6713,478.68294)"
     d="m 399.72526,173.07693 -16.57165,-14.40536 -20.17557,8.66489 8.57938,-20.21208 -14.47539,-16.51051 21.874,1.91361 11.22929,-18.86895 4.93949,21.39475 21.41547,4.84886 -18.82122,11.30908 z" /><path
     sodipodi:type="star"
     style="opacity:0.990228;fill:#ff6600;stroke:none;stroke-width:6.5;stroke-linecap:round;stroke-linejoin:round;stroke-miterlimit:4;stroke-dasharray:none;stroke-dashoffset:0;stroke-opacity:1;paint-order:stroke fill markers"
     id="path65716-8"
     inkscape:flatsided="false"
     sodipodi:sides="5"
     sodipodi:cx="385.30219"
     sodipodi:cy="144.91759"
     sodipodi:r1="31.638166"
     sodipodi:r2="13.920794"
     sodipodi:arg1="1.0974403"
     sodipodi:arg2="1.7257588"
     inkscape:rounded="0"
     inkscape:randomized="0"
     inkscape:transform-center-x="-0.4631422"
     inkscape:transform-center-y="-0.47497907"
     transform="matrix(0.17032017,0,0,0.16686652,579.10458,519.24013)"
     d="m 399.72526,173.07693 -16.57165,-14.40536 -20.17557,8.66489 8.57938,-20.21208 -14.47539,-16.51051 21.874,1.91361 11.22929,-18.86895 4.93949,21.39475 21.41547,4.84886 -18.82122,11.30908 z" /><path
     sodipodi:type="star"
     style="opacity:0.990228;fill:#ff6600;stroke:none;stroke-width:6.5;stroke-linecap:round;stroke-linejoin:round;stroke-miterlimit:4;stroke-dasharray:none;stroke-dashoffset:0;stroke-opacity:1;paint-order:stroke fill markers"
     id="path65716-88"
     inkscape:flatsided="false"
     sodipodi:sides="5"
     sodipodi:cx="385.30219"
     sodipodi:cy="144.91759"
     sodipodi:r1="31.638166"
     sodipodi:r2="13.920794"
     sodipodi:arg1="1.0974403"
     sodipodi:arg2="1.7257588"
     inkscape:rounded="0"
     inkscape:randomized="0"
     inkscape:transform-center-x="4.3445501"
     inkscape:transform-center-y="-0.47497907"
     transform="matrix(0.17032017,0,0,0.16686652,658.77801,518.05387)"
     d="m 399.72526,173.07693 -16.57165,-14.40536 -20.17557,8.66489 8.57938,-20.21208 -14.47539,-16.51051 21.874,1.91361 11.22929,-18.86895 4.93949,21.39475 21.41547,4.84886 -18.82122,11.30908 z" /></g></svg>
