<?xml version="1.0" encoding="UTF-8" standalone="no"?>
<!-- Generator: Adobe Illustrator 25.1.0, SVG Export Plug-In . SVG Version: 6.00 Build 0)  -->

<svg
   version="1.1"
   x="0px"
   y="0px"
   viewBox="0 0 180 100"
   xml:space="preserve"
   id="svg101"
   sodipodi:docname="aip_logo_page.svg"
   inkscape:version="1.1 (c68e22c387, 2021-05-23)"
   width="180"
   height="100"
   xmlns:inkscape="http://www.inkscape.org/namespaces/inkscape"
   xmlns:sodipodi="http://sodipodi.sourceforge.net/DTD/sodipodi-0.dtd"
   xmlns:xlink="http://www.w3.org/1999/xlink"
   xmlns="http://www.w3.org/2000/svg"
   xmlns:svg="http://www.w3.org/2000/svg"><defs
   id="defs105">
	
	

		
		
		
		
	
			
				
			
		
		
		
	
			
				
			
		
			
			
		
			
				
			
		
			
				
			
		
			
				
			
		
				
					
				
			
				
					
				
			<linearGradient
   inkscape:collect="always"
   xlink:href="#SVGID_5_"
   id="linearGradient51703"
   gradientUnits="userSpaceOnUse"
   x1="375.4671"
   y1="132.4735"
   x2="214.767"
   y2="150.3291" /></defs><sodipodi:namedview
   id="namedview103"
   pagecolor="#505050"
   bordercolor="#eeeeee"
   borderopacity="1"
   inkscape:pageshadow="0"
   inkscape:pageopacity="0"
   inkscape:pagecheckerboard="0"
   showgrid="false"
   inkscape:zoom="2.912"
   inkscape:cx="68.337912"
   inkscape:cy="60.267857"
   inkscape:window-width="1920"
   inkscape:window-height="1001"
   inkscape:window-x="-9"
   inkscape:window-y="-9"
   inkscape:window-maximized="1"
   inkscape:current-layer="svg101"
   width="150px" />
<style
   type="text/css"
   id="style2">
	.st0{fill:#ECECEC;}
	.st1{fill:url(#SVGID_1_);}
	.st2{fill:url(#SVGID_2_);}
	.st3{fill:url(#SVGID_3_);}
	.st4{fill:url(#SVGID_4_);}
	.st5{fill:url(#SVGID_5_);}
	.st6{fill:#3F3E3E;}
	.st7{font-family:'Bebas-Regular';}
	.st8{font-size:93.2709px;}
	.st9{fill:#AD0029;}
	.st10{font-size:17.7659px;}
	.st11{letter-spacing:7;}
</style>

<g
   id="g25"
   transform="translate(30.706593,-0.93021978)">
				<g
   id="g23">
					<linearGradient
   id="SVGID_1_"
   gradientUnits="userSpaceOnUse"
   x1="301.12329"
   y1="307.20239"
   x2="371.84909"
   y2="294.59781"
   xlink:href="#SVGID_5_"
   gradientTransform="matrix(0.36370094,0,0,0.34441122,-12.261838,-32.693306)">
						<stop
   offset="0"
   style="stop-color:#3F3E3E"
   id="stop9" />
						<stop
   offset="1"
   style="stop-color:#222221"
   id="stop11" />
					</linearGradient>
					<path
   class="st1"
   d="m 132.74572,67.530368 c -0.0727,-0.482184 -0.18184,-0.964347 -0.29096,-1.44653 0,0 0,0 0,0 -0.29095,-1.30877 -0.65466,-2.583084 -0.69103,-3.926297 0,-0.413286 0,-0.792141 -0.14548,-1.170984 -0.0727,-0.241093 -0.2546,-0.482184 -0.36371,-0.723277 -0.14548,-0.3444 -0.18185,-0.688823 -0.18185,-1.033223 0.0363,-0.895471 0.54556,-1.790941 1.01837,-2.583094 0.47282,-0.792141 0.94562,-1.584282 1.4548,-2.341991 0.14549,-0.241092 0.50918,-0.241092 0.69102,-0.03446 0.18187,0.206649 0.36372,0.413298 0.54556,0.585504 0.18186,0.172205 0.47282,0.06881 0.50918,-0.172206 l 0.32733,-1.894263 c 0.0363,-0.137762 0.21823,-0.172208 0.29097,-0.03442 l 0.58192,1.170993 c 0.10905,0.275529 0.50917,0.309972 0.69104,0.103328 0.72739,-0.757714 2.1822,-2.514215 2.655,-5.097301 0.0727,-0.482171 0.10905,-0.895467 0.0727,-1.239875 -0.29097,-2.273116 -3.20058,-2.100916 -5.96469,-0.964357 -3.20058,1.308765 -5.09182,-1.61873 -5.49188,-1.825374 -0.21822,-0.103327 -0.61829,0.03442 -0.94564,0.206644 -0.21821,0.103315 -0.43643,-0.103327 -0.32732,-0.30997 0.25458,-0.55106 0.87287,-1.308765 2.1822,-1.790937 2.14584,-0.792149 6.14655,3.306346 9.89266,1.894263 1.3457,-0.516624 2.40044,-1.515411 3.27331,-2.61753 0.50919,-0.688824 0.58193,-1.584293 0.18185,-2.307553 -0.10904,-0.172207 -0.18185,-0.309971 -0.29096,-0.482179 -17.60312,2.341998 -33.78781,9.367986 -46.990153,19.734768 0.400061,0.688821 1.018357,1.308757 1.200221,2.066466 0,0.06893 0.0363,0.137774 0.0363,0.206649 0.07274,0.688822 -0.290962,1.377645 -0.109047,2.032023 0.145486,0.516618 0.618282,0.861028 0.945614,1.308769 0.254591,0.344411 0.436444,0.792141 0.472814,1.205439 0.109047,0.757698 -0.109048,1.54985 -0.618296,2.135353 -0.363703,0.413288 -0.836516,0.723266 -1.236577,1.136554 -0.290975,0.34441 -0.545554,0.723264 -0.691036,1.171005 -0.363703,0.99878 -0.400073,2.204219 -0.436443,3.237463 -0.0363,0.861017 0.254592,1.790931 0.981998,2.238671 0.436444,0.275525 0.945615,0.344413 1.345688,0.619936 0.836505,0.585503 0.727406,1.205439 0.727406,2.20424 0,0.206638 0.07274,0.344401 0.07274,0.55105 1.091096,1.584293 0.581911,3.685203 1.018356,5.510578 0.327332,1.480974 1.309325,2.755289 2.182205,4.029615 1.01836,1.44653 2.00035,3.065256 2.07309,4.821754 0.0363,1.067677 -0.21822,2.135355 0.25459,3.168587 0.21822,0.44773 0.6183,0.826585 1.12748,0.964348 0.982,0.241091 1.63665,-0.516618 2.47317,-0.861028 0.98198,-0.413298 2.14583,-0.206638 3.23693,-0.344411 1.74578,-0.20665 3.23694,-1.239872 4.619,-2.273105 0.6183,-0.447741 1.20021,-0.895482 1.67302,-1.480975 0.6183,-0.792141 0.90926,-1.859817 1.74578,-2.410878 0.3637,-0.241092 0.80013,-0.378853 1.20022,-0.55106 0.98198,-0.516616 2.03671,-1.515407 1.78213,-2.548639 -0.0727,-0.344412 -0.10905,-0.688823 0.0363,-1.033234 0.54556,-1.239882 1.85488,-1.722055 2.76413,-2.617526 0.58193,-0.585503 0.69104,-1.618737 0.72741,-2.410878 0,-0.344412 -0.0363,-0.688823 -0.18185,-0.998791 0,-0.03446 -0.0363,-0.06883 -0.0363,-0.103288 -0.25458,-0.551059 -0.54555,-1.412076 -0.0727,-1.928692 0.32733,-0.344423 0.87289,-0.447741 1.27295,-0.688823 0.90926,-0.585514 0.982,-1.928716 1.85488,-2.514207 0.32733,-0.241093 0.76377,-0.344412 1.12748,-0.482185 0,0 0.0363,0 0.0363,0 0.65466,-0.275524 1.16384,-0.757698 1.63665,-1.239872 1.41844,-1.377644 2.32769,-3.960727 2.07309,-5.820545 z"
   id="path14"
   style="fill:url(#SVGID_1_);fill-opacity:1;stroke-width:0.353925" />
					<linearGradient
   id="SVGID_2_"
   gradientUnits="userSpaceOnUse"
   x1="306.94901"
   y1="339.94119"
   x2="377.67551"
   y2="327.33649"
   gradientTransform="matrix(0.36370094,0,0,0.34441122,-12.261838,-32.693306)">
						<stop
   offset="0"
   style="stop-color:#3F3E3E"
   id="stop16" />
						<stop
   offset="1"
   style="stop-color:#222221"
   id="stop18" />
					</linearGradient>
					<path
   class="st2"
   d="m 147.65746,70.526739 c -0.0362,-0.241093 -0.21822,-0.413288 -0.47281,-0.447731 -0.72739,-0.06893 -0.54555,1.377645 -1.23658,1.446532 -0.21822,0.03446 -0.47281,-0.137763 -0.69103,-0.103288 -0.54556,0.03446 -0.7274,0.998789 -1.27295,0.861028 -0.14549,-0.03446 -0.25461,-0.137762 -0.40009,-0.172206 -0.32732,-0.103288 -0.61828,0.172206 -0.8365,0.413297 -0.18185,0.275525 -0.40008,0.619947 -0.72741,0.585493 -0.90925,-0.03446 -1.60028,-0.89546 -2.50952,-0.585493 -0.58193,0.20665 -1.30933,0.757709 -1.52755,1.308759 -0.32732,0.964357 -0.65467,1.928703 -1.20022,2.789732 -0.36369,0.55106 -0.80014,1.067676 -1.34569,1.412088 -0.43645,0.275524 -1.27296,0.378854 -1.56391,0.792141 -0.43645,0.585504 -0.65467,1.480975 -0.94563,2.169796 -0.21821,0.482174 -0.50917,1.412088 -0.47281,2.169786 0.0364,0.55106 0.21822,0.998801 0.76377,1.205439 0.43645,0.137773 0.90926,0.103288 1.3457,0.172217 0.87288,0.172194 1.34569,0 2.03673,-0.516628 0.58192,-0.44773 1.05474,-1.033234 1.60028,-1.54985 0.61829,-0.619935 1.27295,-1.205439 1.89124,-1.825374 1.30933,-1.239882 2.58228,-2.479766 3.89161,-3.719647 0.32733,-0.309968 0.65465,-0.654379 0.90924,-0.99879 0.32734,-0.44773 0.87289,-0.65438 1.41845,-0.516617 0.18183,0.06893 0.36368,0.06893 0.54553,-0.06893 0.14543,-0.103288 0.21823,-0.241082 0.29098,-0.413287 0.58191,-1.412077 0.76375,-2.961939 0.50917,-4.408469 z"
   id="path21"
   style="fill:url(#SVGID_2_);stroke-width:0.353925" />
				</g>
			</g><g
   id="g38"
   transform="matrix(0.36370094,0,0,0.34441123,18.444755,-33.589082)">
				<linearGradient
   id="SVGID_3_"
   gradientUnits="userSpaceOnUse"
   x1="439.164"
   y1="197.2643"
   x2="313.04175"
   y2="234.71368">
					<stop
   offset="0"
   style="stop-color:#AD0029"
   id="stop31" />
					<stop
   offset="1"
   style="stop-color:#842d2a;stop-opacity:1"
   id="stop33" />
				</linearGradient>
				<path
   class="st3"
   d="m 433.2,202.7 c 0,0 0,0 0,0 -0.2,0.4 -0.8,0.5 -1.1,0.2 -0.7,-0.5 -2.2,-1.6 -3.9,-2.3 -2.1,-0.9 -4.7,-1.5 -6.8,-0.2 -0.1,0 -0.1,0.1 -0.2,0.1 -4.5,3.1 1.1,4.9 3.1,7.6 0.3,0.4 0.6,0.9 1,1.4 -48.4,6.8 -92.9,27.2 -129.2,57.3 -0.3,-0.6 -0.6,-1.2 -0.7,-1.9 -0.5,-2 0,-4.1 -0.6,-6 -1.1,-3.2 -4.8,-4.4 -7.1,-6.8 -0.1,-0.2 -0.3,-0.3 -0.4,-0.5 0,0 0,0 0,0 -1.4,-1.6 -2.2,-3.7 -2.2,-5.8 -0.1,-3.5 1.8,-6.8 2.8,-10.2 0.9,-3.4 0.5,-7.9 -2.7,-9.4 -1.9,-0.9 -4,-0.4 -6.2,0.1 -2.9,0.7 -6,-0.3 -7.7,-2.8 -0.9,-1.3 -2.3,-2.4 -3.8,-3.2 -1.1,-0.5 -2.3,-0.8 -3.5,-1 -1,-0.1 -2.1,-0.1 -3.1,0 43.8,-26.6 96,-40.6 151,-37 2.4,0.2 4.8,0.3 7.2,0.6 5.5,5.8 11.3,12.3 13.5,16.3 0.6,1.7 0.9,2.9 0.6,3.5 z"
   id="path36"
   style="fill:url(#SVGID_3_)" />
			</g><g
   id="g51"
   transform="matrix(0.36370094,0,0,0.34441123,18.517494,-33.657964)">
				<linearGradient
   id="SVGID_4_"
   gradientUnits="userSpaceOnUse"
   x1="210.71021"
   y1="210.7242"
   x2="294.57111"
   y2="181.35583">
					<stop
   offset="0"
   style="stop-color:#F2CE30"
   id="stop44" />
					<stop
   offset="1"
   style="stop-color:#dc861b;stop-opacity:1"
   id="stop46" />
				</linearGradient>
				<path
   class="st4"
   d="m 409.8,173.9 c -2.1,-2 -3.4,-3.7 -4.4,-5.4 -19.2,-5.9 -39.3,-9.7 -60.2,-11 -54.6,-3.5 -106.4,10.2 -150,36.4 0.5,0.9 1.2,1.8 1.9,2.6 3.2,3 5.5,6.6 8.3,10.4 1.3,1.8 2.7,3.7 3.6,5.7 0.7,1.5 1.2,3.1 2.2,4.5 0.9,1.3 2.3,2.2 3.5,3.2 1.3,1 2.6,2.1 3.8,3.2 1.5,1.2 3.2,2.9 5.3,2.9 2.5,0.1 4.4,-2.1 6.8,-2.8 3.1,-1 6.4,0.6 9.6,0.9 4,0.4 8,-1 11.8,-2.5 0.1,0 0.2,-0.1 0.3,-0.1 2.7,-1 5.6,-2.1 8.4,-2.4 43.8,-26.6 96,-40.6 151,-37 2.4,0.2 4.8,0.3 7.2,0.6 -3.4,-3.6 -6.8,-6.9 -9.1,-9.2 z m -9.6,6.6 c -2,-1 -4.3,-1.8 -6.5,-0.9 -3.6,1.4 -7,-2.3 -8.6,-2.9 -0.8,-0.3 -2,-0.6 -3.2,-0.9 -1,-0.2 -1.1,-1.6 -0.2,-2 1.6,-0.8 3.9,-1.8 7,-2.4 6.1,-1.3 8.8,0.2 9.5,2.7 0.4,1.3 1.8,3.5 3,5.4 0.4,0.6 -0.3,1.4 -1,1 z"
   id="path49"
   style="fill:url(#SVGID_4_)" />
			</g><g
   id="g66"
   transform="matrix(0.36370094,0,0,0.34441123,18.55387,-33.692408)">
				<g
   id="g64">
					<linearGradient
   id="SVGID_5_"
   gradientUnits="userSpaceOnUse"
   x1="375.4671"
   y1="132.4735"
   x2="214.767"
   y2="150.3291">
						<stop
   offset="0"
   style="stop-color:#67B752"
   id="stop57" />
						<stop
   offset="1"
   style="stop-color:#386539"
   id="stop59" />
					</linearGradient>
					<path
   class="st5"
   d="m 400.5,157.9 c -3.1,-3.9 -9,-6.3 -13.5,-8.2 -1.1,-0.5 -2.3,-0.9 -3.4,-1.3 -0.7,-0.2 -1.6,-0.3 -2.6,-0.4 -3.5,-0.2 -6.7,-2 -8.5,-5 0,0 0,-0.1 0,-0.1 0,0 0,0 0,0 -0.4,-0.7 -0.9,-1.4 -1.3,-2 -1.7,-2.4 -3.3,-4.9 -5,-7.3 v 0 c -1.1,-1.6 1.1,-3.4 2.4,-2 0.2,0.2 0.5,0.5 0.6,0.8 0.5,0.7 1.1,2.1 1.9,3 v 0 c 0.7,0.7 1.5,1.1 2.4,0.5 2,-1.2 -0.3,-7 -0.7,-8.8 0,-0.2 -0.1,-0.6 -0.1,-1 -0.2,-1.5 -0.4,-3.7 -1.2,-4.3 -0.8,-0.6 -2,0.3 -2.8,0.7 -1.4,0.8 -3.1,0.8 -4.6,0.3 -1.3,-0.5 -2.5,-0.8 -3.9,-0.6 -1,0.1 -2,0.5 -3,0.8 -3.3,1 -6.9,1.2 -10.3,0.5 -1.4,-0.3 -2.8,-0.7 -4.3,-1.1 -1.3,-0.4 -2.6,-0.7 -3.9,-1 -2.6,-0.6 -5.3,-1.2 -7.9,-1.6 -2.9,-0.5 -6.6,-2.7 -7.6,1.2 -0.3,1 -0.1,2.5 -0.2,3.8 0,1.3 -0.3,2.5 -1.1,3.2 -0.7,0.6 -1.7,0.8 -2.6,0.7 -1.3,-0.2 -2.4,-0.9 -3.4,-1.7 -0.4,-0.4 -0.9,-0.7 -1.3,-1.1 -5.2,-4.5 -11.5,-7.7 -18.2,-9.2 -2.2,-0.5 -3.3,-2.9 -2.4,-4.9 0.8,-1.8 1.5,-3.6 1.5,-5.6 0,-1.7 -0.8,-3.3 -2.2,-4.3 -2,-1.4 -3.6,-0.4 -5.2,0.2 -3.6,1.3 -7.5,0.6 -11.3,0.5 -9.6,-0.2 -18.9,3.3 -28.4,3.3 -1.9,0 -3.8,-0.1 -5.6,0.5 -4.8,1.7 -6.5,8 -11.1,10.1 -1.4,0.6 -2.9,0.9 -4.1,1.9 -2,1.7 -1.8,4.9 -2.8,7.4 -2.4,6.2 -11.2,6.8 -15.6,11.9 -1.8,2.1 -2.7,4.8 -4.8,6.6 -0.9,0.7 -1.9,1.3 -2.6,2.2 -1.2,1.4 -1.4,3.4 -2,5.1 -0.3,0.8 -0.8,1.7 -1.4,2.3 -2,2 -2.8,4.9 -1.9,7.6 l 0.1,0.4 c 2.3,6.6 1.2,14.3 -2.7,20.2 -0.4,0.6 -0.9,1.3 -1.1,2.1 -0.3,1.2 0.4,2.4 0.8,3.6 0.2,0.8 0.4,1.5 0.4,2.3 0.1,1.4 0.5,2.7 1.1,3.9 43.6,-26.2 95.4,-39.9 150,-36.4 20.9,1.3 41.1,5.1 60.2,11 -2.6,-4.4 -2.4,-7.6 -4.8,-10.7 z"
   id="path62"
   style="fill:url(#linearGradient51703)" />
				</g>
			</g><g
   id="g76"
   transform="matrix(0.59099614,0,0,0.49276048,-9.1459065,-79.399734)">
				<text
   transform="scale(1.0060445,0.99399182)"
   class="st6 st7 st8"
   id="text74"
   style="font-style:normal;font-variant:normal;font-weight:normal;font-stretch:normal;font-family:Algerian;-inkscape-font-specification:Algerian;fill:#447a40;fill-opacity:1;stroke-width:1.03335"
   x="18.491747"
   y="320.36624"><tspan
     style="fill:#447a40;fill-opacity:1;stroke-width:1.03335"
     id="tspan20559">A I P</tspan></text>
			</g><g
   id="g84"
   transform="matrix(0.58478904,0,0,0.78384147,-33.995878,-177.3715)">
					<path
   class="st9"
   d="M 271.2,353.2 H 63.1 c -0.9,0 -1.6,-0.7 -1.6,-1.6 v -17.9 c 0,-0.9 0.7,-1.6 1.6,-1.6 h 208.2 c 0.9,0 1.6,0.7 1.6,1.6 v 17.9 c -0.1,0.9 -0.8,1.6 -1.7,1.6 z"
   id="path82"
   style="fill:#df9a1e;fill-opacity:1" />
				</g><g
   id="g92"
   transform="matrix(0.50366445,0,0,0.78384147,-25.760579,-178.44822)">
					<text
   transform="scale(0.99974997,1.0002501)"
   class="st0 st7 st10 st11"
   id="text90"
   style="font-style:normal;font-variant:normal;font-weight:bold;font-stretch:normal;font-size:14px;font-family:'Comic Sans MS';-inkscape-font-specification:'Comic Sans MS Bold';letter-spacing:1.7747px;stroke-width:0.99975"
   x="59.556919"
   y="347.43399"><tspan
     style="font-style:normal;font-variant:normal;font-weight:bold;font-stretch:normal;font-size:14px;font-family:'Comic Sans MS';-inkscape-font-specification:'Comic Sans MS Bold';stroke-width:0.99975"
     id="tspan10989">Africa Integration Partners</tspan></text>
				</g>
</svg>
